<?xml version="1.0" encoding="UTF-8"?>
<svg xmlns="http://www.w3.org/2000/svg" version="1.1" viewBox="0 0 45 50">
  <!-- Generator: Adobe Illustrator 28.6.0, SVG Export Plug-In . SVG Version: 1.2.0 Build 709)  -->
  <g>
    <g id="Layer_1">
      <g>
        <path d="M33.9,17.2c-.3-.6-.8-.9-1.5-.9-1.5,0-3.1,0-4.6,0-.3,0-.3,0-.3-.3,0-.5,0-1.1-.2-1.6-.4-1-1.1-1.6-2.2-1.8,0,0,0,0,0,0h-4.8c0,0-.2,0-.3,0-1.2.3-2,1.4-2.1,2.6,0,.2,0,.5,0,.7,0,.2,0,.3-.3.3-1.7,0-3.3,0-5,0-.6,0-1.1.2-1.4.7-.3.5-.4,1.1,0,1.6.3.5.7.8,1.3.8.3,0,.5,0,.8,0,.2,0,.2,0,.2.2,0,1.9,0,3.8,0,5.6,0,0,0,.2,0,.3,0,.7,0,1.3,0,2,0,1.7,0,3.5,0,5.2,0,2.5,1.6,4.3,4,4.8,0,0,0,0,.1,0h9.8c.2,0,.3,0,.5-.1,2-.4,3.6-2.3,3.6-4.4,0-2.9,0-5.7,0-8.6,0,0,0,0,0,0,0-1.6,0-3.1,0-4.7,0-.2,0-.3.3-.3.3,0,.5,0,.8,0,1.1,0,1.8-1.2,1.3-2.2ZM21,15.8c0-.1,0-.2.2-.2.5,0,1,0,1.5,0,.5,0,1,0,1.5,0,.2,0,.2,0,.2.2,0,0,0,.1,0,.2,0,.2,0,.2-.2.2-1,0-1.9,0-2.9,0-.2,0-.2,0-.2-.2,0,0,0-.1,0-.2ZM28.4,32.7c0,1-.6,1.7-1.7,1.7-2.8,0-5.7,0-8.5,0-.3,0-.6,0-.9-.2-.5-.3-.8-.8-.8-1.4,0-2.3,0-4.7,0-7s0-.2,0-.3c0-1.9,0-3.9,0-5.8,0-.2,0-.3.3-.3,3.7,0,7.5,0,11.2,0,.3,0,.3,0,.3.3,0,1.6,0,3.1,0,4.7,0,0,0,.2,0,.3,0,2.7,0,5.4,0,8.1Z"/>
        <path d="M26.4,23.8c0-.9-.7-1.5-1.6-1.5-.9,0-1.5.7-1.5,1.6,0,.7,0,1.5,0,2.2,0,1,0,2.1,0,3.1,0,.9.7,1.6,1.5,1.6.8,0,1.6-.6,1.6-1.5,0-1.1,0-2.1,0-3.2,0-.8,0-1.5,0-2.3Z"/>
        <path d="M21.7,23.8c0-.8-.6-1.5-1.5-1.5-.8,0-1.5.5-1.6,1.3,0,.4,0,.8,0,1.3,0,1.5,0,2.9,0,4.4,0,.9.8,1.5,1.6,1.5.9,0,1.5-.7,1.5-1.6,0-.5,0-.9,0-1.4,0-1,0-2,0-2.9,0-.4,0-.7,0-1.1Z"/>
      </g>
    </g>
  </g>
</svg>