<?xml version="1.0" encoding="UTF-8"?>
<svg id="Layer_1" xmlns="http://www.w3.org/2000/svg" version="1.1" viewBox="0 0 45 50">
  <!-- Generator: Adobe Illustrator 29.1.0, SVG Export Plug-In . SVG Version: 2.1.0 Build 142)  -->
  <defs>
    <style>
      .st0 {
        fill: #00aeef;
      }

      .st1 {
        fill: #fff;
      }
    </style>
  </defs>
  <path class="st1" d="M33.9,17.2c-.3-.6-.8-.9-1.5-.9h-4.6q-.3,0-.3-.3c0-.5,0-1.1-.2-1.6-.4-1-1.1-1.6-2.2-1.8h-5.1c-1.2.3-2,1.4-2.1,2.6v.7c0,.2,0,.3-.3.3h-5c-.6,0-1.1.2-1.4.7-.3.5-.4,1.1,0,1.6.3.5.7.8,1.3.8h.8q.2,0,.2.2v13.1c0,2.5,1.6,4.3,4,4.8h9.9c.2,0,.3,0,.5,0,2-.4,3.6-2.3,3.6-4.4v-8.6h0v-4.7c0-.2,0-.3.3-.3h.8c1.1,0,1.8-1.2,1.3-2.2h0ZM21,15.8c0-.1,0-.2.2-.2h3q.2,0,.2.2v.2q0,.2-.2.2h-2.9q-.2,0-.2-.2v-.2h-.1ZM28.4,32.7c0,1-.6,1.7-1.7,1.7h-8.5c-.3,0-.6,0-.9-.2-.5-.3-.8-.8-.8-1.4v-7c0-2.3,0-.2,0-.3v-5.8c0-.2,0-.3.3-.3h11.2q.3,0,.3.3v13.1h.1Z"/>
  <path class="st0" d="M26.4,23.8c0-.9-.7-1.5-1.6-1.5s-1.5.7-1.5,1.6v5.3c0,.9.7,1.6,1.5,1.6s1.6-.6,1.6-1.5v-5.5Z"/>
  <path class="st0" d="M21.7,23.8c0-.8-.6-1.5-1.5-1.5s-1.5.5-1.6,1.3v5.7c0,.9.8,1.5,1.6,1.5s1.5-.7,1.5-1.6v-5.4Z"/>
</svg>