<?xml version="1.0" encoding="UTF-8"?>
<svg xmlns="http://www.w3.org/2000/svg" version="1.1" viewBox="0 0 45 50">
  <!-- Generator: Adobe Illustrator 28.6.0, SVG Export Plug-In . SVG Version: 1.2.0 Build 709)  -->
  <g>
    <g id="Layer_1">
      <path d="M19.1,12.5c1.6,0,3.2,0,4.8,0,0,0,0,0,0,0,1.1.2,1.8.8,2.2,1.8.2.5.2,1,.2,1.6,0,.2,0,.3.3.3,1.5,0,3.1,0,4.6,0,.7,0,1.2.3,1.5.9.5,1-.3,2.1-1.3,2.2-.3,0-.5,0-.8,0-.2,0-.3,0-.3.3,0,1.6,0,3.1,0,4.7-1,0-2.1,0-3.1,0,0-1.6,0-3.1,0-4.7,0-.2,0-.3-.3-.3-3.7,0-7.5,0-11.2,0-.3,0-.3,0-.3.3,0,1.9,0,3.9,0,5.8h-3.1c0,0,0-.2,0-.3,0-1.9,0-3.8,0-5.6,0-.2,0-.2-.2-.2-.3,0-.5,0-.8,0-.6,0-1.1-.3-1.3-.8-.3-.5-.2-1.1,0-1.6.3-.5.8-.7,1.4-.7,1.7,0,3.3,0,5,0,.2,0,.3,0,.3-.3,0-.2,0-.5,0-.7,0-1.2.9-2.3,2.1-2.6.1,0,.2,0,.3,0ZM21.5,15.6c-.5,0-1,0-1.5,0-.1,0-.2,0-.2.2,0,0,0,.1,0,.2,0,.2,0,.2.2.2,1,0,1.9,0,2.9,0,.2,0,.2,0,.2-.2,0,0,0-.1,0-.2,0-.2,0-.2-.2-.2-.5,0-1,0-1.5,0Z"/>
      <path d="M27.2,24.3c1,0,2.1,0,3.1,0,0,0,0,0,0,0,0,2.9,0,5.7,0,8.6,0,2.1-1.6,4-3.6,4.4-.2,0-.3,0-.5.1h-9.8c0,0,0,0-.1,0-2.4-.4-4-2.3-4-4.8,0-1.7,0-3.5,0-5.2,0-.7,0-1.3,0-2,1,0,2.1,0,3.1,0,0,0,0,.2,0,.3,0,2.3,0,4.7,0,7,0,.6.2,1.1.8,1.4.3.2.6.2.9.2,2.8,0,5.7,0,8.5,0,1,0,1.7-.6,1.7-1.7,0-2.7,0-5.4,0-8.1,0,0,0-.2,0-.3Z"/>
      <path d="M20.5,24.9c0,1,0,2,0,2.9,0,.5,0,.9,0,1.4,0,.9-.7,1.6-1.5,1.6-.8,0-1.6-.6-1.6-1.5,0-1.5,0-2.9,0-4.4,1,0,2.1,0,3.1,0Z"/>
      <path d="M25.2,26.1c0,1.1,0,2.1,0,3.2,0,.9-.8,1.5-1.6,1.5-.9,0-1.5-.7-1.5-1.6,0-1,0-2.1,0-3.1,1,0,2.1,0,3.1,0Z"/>
      <path d="M25.2,26.1c-1,0-2.1,0-3.1,0,0-.7,0-1.5,0-2.2,0-.9.7-1.6,1.5-1.6.8,0,1.6.6,1.6,1.5,0,.8,0,1.5,0,2.3Z"/>
      <path d="M20.5,24.9c-1,0-2.1,0-3.1,0,0-.4,0-.8,0-1.3.1-.8.8-1.4,1.6-1.3.8,0,1.4.7,1.5,1.5,0,.4,0,.7,0,1.1Z"/>
    </g>
  </g>
</svg>