<?xml version="1.0" encoding="UTF-8"?>
<svg id="Layer_1" xmlns="http://www.w3.org/2000/svg" version="1.1" viewBox="0 0 45 50">
  <!-- Generator: Adobe Illustrator 29.1.0, SVG Export Plug-In . SVG Version: 2.1.0 Build 142)  -->
  <defs>
    <style>
      .st0 {
        fill: #fff;
      }

      .st1 {
        fill: none;
      }
    </style>
  </defs>
  <rect class="st1" y="0" width="45" height="50"/>
  <path class="st0" d="M14.8,25.2c0,.3.6.7.9.7.7,0,1-.6,1-1.2.2-3-.2-6.3,0-9.3.4-1.7,2.6-1.5,2.8.3s-.2,4.5,0,6.6,1.8,1.3,1.9-.2v-8.6c.4-1.6,2.5-1.4,2.8.2v8.6c.2,1.1,1.6,1.1,1.9,0v-5.8c.4-1.6,2.5-1.6,2.8,0v7.8c.2,1.1,1.6,1.2,1.9.1.1-1.7-.1-3.7,0-5.4s2.6-1.8,2.8,0c-.2,4.1.3,8.3,0,12.4-.2,3-2.6,5.6-5.7,5.8s-6.6-.2-9.7,0c-4.1-.3-4.9-4.2-5.7-7.5s-.9-3.6-1-4.9.5-1.9,1.4-2.5,1.2-.9,1.7-1.2.2-.1.3-.1v4Z"/>
</svg>