<?xml version="1.0" encoding="UTF-8"?><svg id="Layer_1" xmlns="http://www.w3.org/2000/svg" width="475.4352mm" height="177.77028mm" viewBox="0 0 1347.69034 503.91577"><polygon points="271.89962 285.8842 271.01479 282.42631 267.55685 285.8842 271.89962 285.8842" fill="none" stroke="#ed2224" stroke-miterlimit="2.62754" stroke-width=".65688"/><path d="M224.62069,103.79582c-.01202.04822-.02405.09814-.03607.14636l.1463-.14636h-.11023Z" fill="none" stroke="#ed2224" stroke-miterlimit="2.62754" stroke-width=".65688"/><path d="M224.58462,103.94218L73.13638,255.39055l-23.05408,79.28247,158.75403-158.75391c5.24951-23.71362,10.49884-50.90283,15.74829-71.97693Z" fill="none" stroke="#ed2224" stroke-miterlimit="2.62754" stroke-width=".65688"/><path d="M249.71371,199.17558l9.84528,38.47791,95.85852-95.8584-12.91785-43.31079-94.41699,94.41699c.55402,2.1499,1.09912,4.24927,1.63104,6.27429Z" fill="none" stroke="#ed2224" stroke-miterlimit="2.62754" stroke-width=".65688"/><path d="M248.08267,192.90129l94.41699-94.41699-12.91785-43.31079-92.70593,92.70605c3.84424,15.73755,7.72583,31.51465,11.20679,45.02173Z" fill="none" stroke="#ed2224" stroke-miterlimit="2.62754" stroke-width=".65688"/><path d="M224.62069,103.79582h.11023L316.66396,11.86296l-.34229-1.14771h-54.73877L96.19045,176.10783l-23.05408,79.28271L224.58462,103.94218c.01202-.04822.02405-.09814.03607-.14636Z" fill="none" stroke="#ed2224" stroke-miterlimit="2.62754" stroke-width=".65688"/><path d="M226.06588,103.79582c3.28638,13.17566,7.02954,28.60718,10.81,44.08374l92.70593-92.70605-12.91785-43.31055-91.93304,91.93286h1.33496Z" fill="none" stroke="#ed2224" stroke-miterlimit="2.62754" stroke-width=".65688"/><polygon points="271.01479 282.42631 368.33541 185.10563 355.4175 141.79509 259.55898 237.65349 271.01479 282.42631" fill="none" stroke="#ed2224" stroke-miterlimit="2.62754" stroke-width=".65688"/><polygon points="271.91634 285.8842 271.89962 285.8842 271.91634 285.94963 271.91634 285.8842" fill="none" stroke="#ed2224" stroke-miterlimit="2.62754" stroke-width=".65688"/><polygon points="144.28378 10.71525 142.29849 17.54265 149.12582 10.71525 144.28378 10.71525" fill="none" stroke="#ed2224" stroke-miterlimit="2.62754" stroke-width=".65688"/><polygon points="137.84634 493.91887 144.96566 464.70402 115.75082 493.91887 137.84634 493.91887" fill="none" stroke="#ed2224" stroke-miterlimit="2.62754" stroke-width=".65688"/><polygon points="205.35433 10.71525 119.24447 96.82512 96.19045 176.10783 261.58291 10.71525 205.35433 10.71525" fill="none" stroke="#ed2224" stroke-miterlimit="2.62754" stroke-width=".65688"/><polygon points="149.12582 10.71525 142.29849 17.54265 119.24447 96.82512 205.35433 10.71525 149.12582 10.71525" fill="none" stroke="#ed2224" stroke-miterlimit="2.62754" stroke-width=".65688"/><polygon points="460.44204 493.91887 458.7604 488.28068 453.12222 493.91887 460.44204 493.91887" fill="none" stroke="#ed2224" stroke-miterlimit="2.62754" stroke-width=".65688"/><path d="M203.14059,199.83244c1.89856-7.21118,3.79718-15.33691,5.69574-23.91333L50.0823,334.67302l-23.05402,79.28271,163.97791-163.97803,12.1344-50.14526Z" fill="none" stroke="#ed2224" stroke-miterlimit="2.62754" stroke-width=".65688"/><polygon points="407.08895 315.03789 300.69454 421.43229 312.83602 465.51945 420.0068 358.34855 407.08895 315.03789" fill="none" stroke="#ed2224" stroke-miterlimit="2.62754" stroke-width=".65688"/><polygon points="394.17111 271.72722 283.84658 382.05168 289.84927 382.05168 300.69454 421.43229 407.08895 315.03789 394.17111 271.72722" fill="none" stroke="#ed2224" stroke-miterlimit="2.62754" stroke-width=".65688"/><polygon points="420.0068 358.34855 312.83602 465.51945 320.65713 493.91887 340.66512 493.91887 432.92471 401.65935 420.0068 358.34855" fill="none" stroke="#ed2224" stroke-miterlimit="2.62754" stroke-width=".65688"/><polygon points="396.8937 493.91887 453.12222 493.91887 458.7604 488.28068 445.84255 444.97001 396.8937 493.91887" fill="none" stroke="#ed2224" stroke-miterlimit="2.62754" stroke-width=".65688"/><polygon points="432.92471 401.65935 340.66512 493.91887 396.8937 493.91887 445.84255 444.97001 432.92471 401.65935" fill="none" stroke="#ed2224" stroke-miterlimit="2.62754" stroke-width=".65688"/><polygon points="381.25326 228.41643 227.61801 382.05168 283.84658 382.05168 394.17111 271.72722 381.25326 228.41643" fill="none" stroke="#ed2224" stroke-miterlimit="2.62754" stroke-width=".65688"/><polygon points="368.33541 185.10563 271.01479 282.42631 271.89962 285.8842 271.91634 285.8842 271.91634 285.94963 271.89962 285.8842 267.55685 285.8842 171.38943 382.05168 227.61801 382.05168 381.25326 228.41643 368.33541 185.10563" fill="none" stroke="#ed2224" stroke-miterlimit="2.62754" stroke-width=".65688"/><polygon points="59.52224 493.91887 115.75082 493.91887 144.96566 464.70402 163.08279 390.35832 59.52224 493.91887" fill="none" stroke="#ed2224" stroke-miterlimit="2.62754" stroke-width=".65688"/><polygon points="165.10702 382.05168 165.10696 382.05168 165.10702 382.05168 171.38943 382.05168 267.55685 285.8842 211.32827 285.8842 3.97421 493.23832 3.77633 493.91887 59.52224 493.91887 163.08279 390.35832 165.10702 382.05168" fill="none" stroke="#ed2224" stroke-miterlimit="2.62754" stroke-width=".65688"/><polygon points="182.31735 285.8842 191.00619 249.9777 27.02828 413.95573 3.97421 493.23832 211.32827 285.8842 182.31735 285.8842" fill="none" stroke="#ed2224" stroke-miterlimit="2.62754" stroke-width=".65688"/><path d="M858.63217,257.09465l-91.39612,91.39612c-1.6485,30.96741-23.82068,47.60767-53.38312,53.38318l-96.88739,96.88733c9.55957.09827,20.38153.15027,32.72479.15027,8.14764,0,16.02557-.09863,23.6463-.29272l212.26599-212.26611c-7.06012-11.08716-16.10754-20.91455-26.97046-29.25806Z" fill="none" stroke="#ed2224" stroke-miterlimit="2.62754" stroke-width=".65688"/><path d="M650.4786,288.11723h8.44525l213.62402-213.62402c-6.992-11.48083-16.08472-21.42224-26.64081-29.58777l-89.18481,89.18481c.84906,3.73047,1.28827,7.74841,1.28827,12.07397,0,27.02417-20.42493,45.25024-62.68268,49.32056l-173.27002,173.27002v56.22852l128.42078-128.4209v-8.44519Z" fill="none" stroke="#ed2224" stroke-miterlimit="2.62754" stroke-width=".65688"/><polygon points="650.4786 184.10539 650.4786 127.87687 522.05782 256.29753 522.05782 312.52617 650.4786 184.10539" fill="none" stroke="#ed2224" stroke-miterlimit="2.62754" stroke-width=".65688"/><path d="M522.12344,17.15263h-.06561v14.23059l16.60413-16.604c-6.28308.77905-11.85364,1.5769-16.53851,2.37341Z" fill="none" stroke="#ed2224" stroke-miterlimit="2.62754" stroke-width=".65688"/><path d="M849.71151,455.88566c25.18646-18.99243,43.78705-37.55029,50.77161-71.9563l-94.83197,94.83203c17.65265-6.30103,32.11444-13.97534,44.06036-22.87573Z" fill="none" stroke="#ed2224" stroke-miterlimit="2.62754" stroke-width=".65688"/><path d="M767.33822,344.74077c0,1.27356-.0368,2.52173-.10217,3.75l91.39612-91.39612c-10.49786-8.06311-22.6875-14.73547-36.40869-19.81982l-70.15796,70.15796c9.66974,8.78052,15.27271,20.94238,15.27271,37.30798Z" fill="none" stroke="#ed2224" stroke-miterlimit="2.62754" stroke-width=".65688"/><path d="M901.36447,326.8195l-167.69745,167.69751c28.6004-3.40295,52.28217-8.72302,71.98413-15.75562l94.83197-94.83203c1.97784-9.74292,3.02722-20.75269,3.02722-33.4082,0-8.19519-.74182-16.10168-2.14587-23.70166Z" fill="none" stroke="#ed2224" stroke-miterlimit="2.62754" stroke-width=".65688"/><path d="M752.06551,307.43278l70.15796-70.15796c-4.31323-1.59839-8.75934-3.05847-13.37012-4.33582v-1.44519c16.63397-6.32202,30.27728-13.6991,41.28314-22.13208l19.49451-19.49451c12.58307-16.91797,18.11407-36.95081,18.11407-60.19055,0-4.56519-.27722-9.01636-.79626-13.35583l-174.23572,174.23572c16.16345,2.79761,29.76324,8.1687,39.35242,16.87622Z" fill="none" stroke="#ed2224" stroke-miterlimit="2.62754" stroke-width=".65688"/><path d="M869.63101,189.86723l-19.49451,19.49451c7.78595-5.9657,14.26007-12.45679,19.49451-19.49451Z" fill="none" stroke="#ed2224" stroke-miterlimit="2.62754" stroke-width=".65688"/><path d="M681.28646,288.11723c11.18561,0,21.75775.76575,31.42664,2.43933l174.23572-174.23572c-1.85651-15.52112-6.92572-29.55347-14.40094-41.82764l-213.62402,213.62402h22.36261Z" fill="none" stroke="#ed2224" stroke-miterlimit="2.62754" stroke-width=".65688"/><path d="M650.4786,402.809v-50.01794l-128.42078,128.42078v9.81714c14.68646,2.36292,20.58954,4.52429,40.42761,5.98389l93.53015-93.53027c-1.93549-.17944-3.77521-.40063-5.53699-.67358Z" fill="none" stroke="#ed2224" stroke-miterlimit="2.62754" stroke-width=".65688"/><path d="M600.25637,9.41325c-23.59711,1.40527-45.08325,3.3186-61.59442,5.36597l-16.60413,16.604v56.22864l78.19855-78.19861Z" fill="none" stroke="#ed2224" stroke-miterlimit="2.62754" stroke-width=".65688"/><path d="M650.4786,196.35051v.06543-12.31055l-128.42078,128.42078v56.22864l173.27002-173.27002c-5.91693.56982-12.25659.86572-19.03369.86572h-25.81555Z" fill="none" stroke="#ed2224" stroke-miterlimit="2.62754" stroke-width=".65688"/><polygon points="650.4786 296.56242 522.05782 424.98332 522.05782 481.21184 650.4786 352.79106 650.4786 296.56242" fill="none" stroke="#ed2224" stroke-miterlimit="2.62754" stroke-width=".65688"/><path d="M522.05782,200.06901L714.21853,7.90837c-12.61328-.57764-25.74371-.80591-39.36957-.80591-5.36548,0-10.76654.04248-16.17407.12085l-136.61707,136.61719v56.22852Z" fill="none" stroke="#ed2224" stroke-miterlimit="2.62754" stroke-width=".65688"/><path d="M687.78964,404.25419c-13.37372,0-23.46222-.00024-31.77405-.77161l-93.53015,93.53027c11.72388.86255,28.32428,1.47974,54.4801,1.74841l96.88739-96.88733c-8.21326,1.60449-16.99017,2.38025-26.06329,2.38025Z" fill="none" stroke="#ed2224" stroke-miterlimit="2.62754" stroke-width=".65688"/><path d="M522.05782,143.8405L658.67489,7.22331c-19.8537.28809-39.78973,1.08057-58.41852,2.18994l-78.19855,78.19861v56.22864Z" fill="none" stroke="#ed2224" stroke-miterlimit="2.62754" stroke-width=".65688"/><path d="M692.78195,99.59099c14.81628,0,27.06964,1.81445,36.80829,5.40283l80.05255-80.05261c-13.48474-5.38354-28.27722-9.23804-44.2821-11.94641l-86.6618,86.66174c3.94153-.04272,8.58716-.06555,14.08307-.06555Z" fill="none" stroke="#ed2224" stroke-miterlimit="2.62754" stroke-width=".65688"/><path d="M756.72225,134.09025l89.18481-89.18481c-7.19189-5.56323-15.0542-10.30981-23.39056-14.15527-4.14404-2.11499-8.44232-4.03979-12.87372-5.80896l-80.05255,80.05261c14.97961,5.51941,23.98187,15.25562,27.13202,29.09644Z" fill="none" stroke="#ed2224" stroke-miterlimit="2.62754" stroke-width=".65688"/><path d="M522.05782,256.29753l128.42078-128.42065v-25.39539c7.52411-1.26379.7868-2.52734,28.22028-2.82495l86.6618-86.66174c-15.89093-2.68921-32.97491-4.25439-51.14215-5.08643l-192.16071,192.16064v56.22852Z" fill="none" stroke="#ed2224" stroke-miterlimit="2.62754" stroke-width=".65688"/><path d="M885.60262,286.3527l-212.26599,212.26611c22.23383-.56665,42.26257-1.95215,60.33038-4.10181l167.69745-167.69751c-2.73242-14.79077-8.06244-28.37561-15.76184-40.4668Z" fill="none" stroke="#ed2224" stroke-miterlimit="2.62754" stroke-width=".65688"/><path d="M1318.66091,379.95012c-14.20618,5.57104-7.29065,10.41956-33.38293,12.78442l-106.73193,106.73193c11.56787,1.05151,23.5968,1.61267,36.13013,1.61267,6.46155,0,12.75244-.14014,18.87488-.38904l90.44568-90.44568-5.33582-30.29431Z" fill="none" stroke="#ed2224" stroke-miterlimit="2.62754" stroke-width=".65688"/><path d="M1336.5939,481.76713l-4.17676-23.71448-35.26758,35.26758c17.55908-3.54468,31.08801-7.79517,39.37854-11.61914l.0658.06604Z" fill="none" stroke="#ed2224" stroke-miterlimit="2.62754" stroke-width=".65688"/><path d="M1323.99673,410.24443l-90.44568,90.44568c24.44714-.99414,46.04236-3.82593,63.59851-7.36987l35.26758-35.26758-8.42041-47.80823Z" fill="none" stroke="#ed2224" stroke-miterlimit="2.62754" stroke-width=".65688"/><path d="M954.71621,273.46782L1225.35,2.83391c-.68774-.00049-1.37207-.00122-2.0686-.00122-21.26855,0-42.10864,2.83105-62.19434,8.03564l-200.89087,200.89087c-3.77612,15.98474-5.77747,32.21838-5.77747,48.44043,0,4.44373.10547,8.86621.29749,13.26819Z" fill="none" stroke="#ed2224" stroke-miterlimit="2.62754" stroke-width=".65688"/><path d="M1229.71877,108.91936c.66858,0,1.31262.02222,1.97571.02734l99.17749-99.17749c-6.32715-2.79443-19.68652-4.97119-50.13403-6.09473l-120.31299,120.31311c20.6272-10.18188,44.39771-15.06824,69.29382-15.06824Z" fill="none" stroke="#ed2224" stroke-miterlimit="2.62754" stroke-width=".65688"/><path d="M1105.96499,178.44768l-144.67859,144.67847c3.3429,14.68213,7.9303,28.88379,13.79236,42.43616l115.59448-115.59436c.20508-28.32166,5.73291-52.07251,15.29175-71.52026Z" fill="none" stroke="#ed2224" stroke-miterlimit="2.62754" stroke-width=".65688"/><path d="M1160.42495,123.98759L1280.73794,3.67448c-14.32739-.52856-32.4425-.82373-55.38794-.84058l-270.63379,270.63391c.73975,16.97009,2.91357,33.59851,6.57019,49.65833l144.67859-144.67847c12.36011-25.14722,31.45093-43.10242,54.45996-54.46008Z" fill="none" stroke="#ed2224" stroke-miterlimit="2.62754" stroke-width=".65688"/><path d="M1231.88662,394.27006c-1.45557,0-2.90015-.01331-4.33594-.03674l-97.32178,97.32166c15.06323,3.69226,31.17212,6.35291,48.31714,7.9115l106.73193-106.73193c-10.82642.98132-27.32849,1.53552-53.39136,1.53552Z" fill="none" stroke="#ed2224" stroke-miterlimit="2.62754" stroke-width=".65688"/><path d="M1282.2731,114.5966l52.93237-52.93237,9.20532-37.35132c-9.84351-5.2605-4.46582-10.53687-13.53882-14.5437l-99.17749,99.17749c19.0918.14673,35.89966,2.37598,50.57861,5.6499Z" fill="none" stroke="#ed2224" stroke-miterlimit="2.62754" stroke-width=".65688"/><path d="M1319.31777,126.12993l15.8877-64.4657-52.93237,52.93237c14.31311,3.19226,26.62341,7.35864,37.04468,11.53333Z" fill="none" stroke="#ed2224" stroke-miterlimit="2.62754" stroke-width=".65688"/><path d="M960.19619,211.7592L1161.08706,10.86833c-98.81006,25.60449-179.21143,109.11865-200.89087,200.89087Z" fill="none" stroke="#ed2224" stroke-miterlimit="2.62754" stroke-width=".65688"/><path d="M1090.65652,251.59477c0-.547.01282-1.08313.01672-1.62683l-115.59448,115.59436c5.50476,12.72595,12.1272,24.88049,19.91992,36.30872l100.94385-100.94385c-3.4873-14.60352-5.28601-31.02002-5.28601-49.3324Z" fill="none" stroke="#ed2224" stroke-miterlimit="2.62754" stroke-width=".65688"/><path d="M1177.97061,387.58488l-89.91504,89.91504c13.04565,5.62744,27.08569,10.35669,42.17334,14.05505l97.32178-97.32166c-18.15186-.29736-34.72205-2.4834-49.58008-6.64844Z" fill="none" stroke="#ed2224" stroke-miterlimit="2.62754" stroke-width=".65688"/><path d="M1139.61831,369.70854l-88.04993,88.04993c11.14661,7.43994,23.30286,14.0542,36.48718,19.74146l89.91504-89.91504c-14.45093-4.0509-27.27905-9.97754-38.35229-17.87634Z" fill="none" stroke="#ed2224" stroke-miterlimit="2.62754" stroke-width=".65688"/><path d="M1095.94253,300.92717l-100.94385,100.94385c7.44995,10.92566,15.95972,21.19141,25.55847,30.67017l91.73547-91.73547c-7.21985-11.36597-12.70862-24.63049-16.3501-39.87854Z" fill="none" stroke="#ed2224" stroke-miterlimit="2.62754" stroke-width=".65688"/><path d="M1112.29263,340.80571l-91.73547,91.73547c9.3031,9.18652,19.63757,17.62573,31.01123,25.21729l88.04993-88.04993c-10.82471-7.72168-19.97302-17.32751-27.32568-28.90283Z" fill="none" stroke="#ed2224" stroke-miterlimit="2.62754" stroke-width=".65688"/><path d="M165.10703,382.05362l-27.26068,111.86721H3.77632L144.2838,10.71725h172.0379l144.12032,483.20358h-139.7849l-30.80787-111.86721h-124.74226.00004ZM271.91636,285.95163l-22.20267-86.77411c-7.16003-27.26068-16.48779-66.67372-23.64782-95.37968h-1.44515c-7.16003,28.70596-14.32006,68.84131-21.48011,96.03656l-20.82323,86.0518h89.59895l.00004.06543Z" fill="none" stroke="#010101" stroke-miterlimit="2.62754" stroke-width="5.66929"/><path d="M522.12344,17.15459c29.36272-4.99206,93.21185-10.0502,152.72552-10.0502s109.69962,4.26975,147.66755,23.64782c37.31104,17.21049,65.22861,52.35378,65.22861,98.92647s-22.20271,80.27135-78.89175,101.81701v1.44527c59.51367,16.48753,94.65696,60.23639,94.65696,117.58223s-21.48007,80.99366-53.79881,105.36444c-36.5884,27.26068-96.75904,43.0259-200.02116,43.0259s-101.09446-3.61286-127.63254-7.88261V17.15459h.06563ZM650.47858,196.3524h25.81557c55.17825,0,81.71638-19.37808,81.71638-50.18619s-21.48007-46.57333-65.22861-46.57333-33.69818,1.44527-42.30334,2.89055v93.93441-.06543ZM650.47858,402.8109c9.32772,1.44527,20.82319,1.44527,37.31104,1.44527,43.0259,0,79.54863-17.21049,79.54863-59.51343s-37.31104-56.62353-86.0518-56.62353h-30.80787v114.69168Z" fill="none" stroke="#010101" stroke-miterlimit="2.62754" stroke-width="5.66929"/><path d="M1336.52812,481.70305c-18.65544,8.60492-63.7835,19.37808-121.85197,19.37808-180.64309,0-260.25739-112.59017-260.25739-240.87947S1079.16103,2.83465,1223.28139,2.83465s101.09438,10.77315,121.12934,21.48023l-25.09294,101.81701c-21.48007-8.60492-50.90851-17.21049-89.59899-17.21049-74.55633,0-139.0623,43.74821-139.0623,142.67532s52.35362,142.67532,141.23005,142.67532,66.6738-6.43733,86.77435-14.31994l17.93296,101.81701-.06575-.06607Z" fill="none" stroke="#010101" stroke-miterlimit="2.62754" stroke-width="5.66929"/></svg>