<?xml version="1.0" encoding="UTF-8"?>
<svg xmlns="http://www.w3.org/2000/svg" version="1.1" viewBox="0 0 45 50">
  <defs>
    <style>
      .cls-1 {
        fill: #00aeef;
      }

      .cls-2 {
        fill: #fff;
      }

      .cls-3 {
        fill: none;
      }
    </style>
  </defs>
  <!-- Generator: Adobe Illustrator 28.6.0, SVG Export Plug-In . SVG Version: 1.2.0 Build 709)  -->
  <g>
    <g id="Layer_1">
      <rect class="cls-3" y="0" width="45" height="50"/>
      <polygon class="cls-3" points="10 12.5 35 12.5 34.9 37.5 9.9 37.5 10 12.5"/>
      <g>
        <path class="cls-2" d="M14.2,24.1c.6,0,1.1-.2,1.5-.6s.6-1,.6-1.8-.2-1.1-.5-1.5-.8-.6-1.3-.6-.7,0-.9.2-.4.3-.6.5-.3.5-.4.8-.2.7-.3.9c0,.2-.2.3-.3.4s-.3.1-.6.1-.5-.1-.7-.4-.3-.6-.3-1,0-.8.3-1.3.5-.9.9-1.3.8-.7,1.4-1,1.2-.4,1.9-.4,1.1.1,1.6.3.9.5,1.3.9.6.8.8,1.3.3,1,.3,1.6-.1,1.4-.4,2-.7,1.1-1.2,1.6c.5.3.9.7,1.2,1.1s.6.9.7,1.4.3,1,.3,1.6-.1,1.4-.3,2-.6,1.2-1,1.7-1,.9-1.6,1.2-1.3.4-2,.4-1.4-.2-2-.5-1.1-.7-1.5-1.2-.7-1-.9-1.5-.3-1-.3-1.3.1-.8.3-1.1.5-.4.9-.4.3,0,.5.2.3.3.3.5c.3,1.1.7,1.8,1,2.4s.9.8,1.6.8.8-.1,1.1-.3.6-.6.9-1,.3-1,.3-1.6c0-.9-.2-1.6-.6-2.1s-.9-.8-1.6-.8-.3,0-.6,0-.4,0-.5,0c-.3,0-.6-.1-.8-.3s-.3-.5-.3-.9.1-.7.3-.9.6-.3,1-.3h.4Z"/>
        <path class="cls-2" d="M23.5,17.5h3.6c.9,0,1.7.1,2.4.3s1.3.6,1.8,1.2c1.4,1.5,2.1,3.8,2.1,6.8s0,1.9-.2,2.8-.4,1.6-.7,2.2-.7,1.3-1.1,1.8c-.4.4-.8.7-1.2,1s-.9.4-1.4.5-1.1.1-1.7.1h-3.6c-.5,0-.9,0-1.1-.3s-.4-.4-.5-.8-.1-.8-.1-1.3v-12.3c0-.7.1-1.3.4-1.6s.7-.5,1.3-.5ZM24.6,20.1v11.4h2.1c.5,0,.8,0,1.1,0s.5-.1.8-.2.5-.3.7-.5c.9-1,1.4-2.6,1.4-5s-.2-2.9-.6-3.7-.9-1.3-1.5-1.6-1.3-.3-2.2-.3h-1.8Z"/>
      </g>
      <g>
        <path class="cls-1" d="M15.7,22.2c.6,0,1.1-.2,1.5-.6s.6-1,.6-1.8-.2-1.1-.5-1.5-.8-.6-1.3-.6-.7,0-.9.2-.4.3-.6.5-.3.5-.4.8-.2.7-.3.9c0,.2-.2.3-.3.4s-.3.1-.6.1-.5-.1-.7-.4-.3-.6-.3-1,0-.8.3-1.3.5-.9.9-1.3.8-.7,1.4-1,1.2-.4,1.9-.4,1.1.1,1.6.3.9.5,1.3.9.6.8.8,1.3.3,1,.3,1.6-.1,1.4-.4,2-.7,1.1-1.2,1.6c.5.3.9.7,1.2,1.1s.6.9.7,1.4.3,1,.3,1.6-.1,1.4-.3,2-.6,1.2-1,1.7-1,.9-1.6,1.2-1.3.4-2,.4-1.4-.2-2-.5-1.1-.7-1.5-1.2-.7-1-.9-1.5-.3-1-.3-1.3.1-.8.3-1.1.5-.4.9-.4.3,0,.5.2.3.3.3.5c.3,1.1.7,1.8,1,2.4s.9.8,1.6.8.8-.1,1.1-.3.6-.6.9-1,.3-1,.3-1.6c0-.9-.2-1.6-.6-2.1s-.9-.8-1.6-.8-.3,0-.6,0-.4,0-.5,0c-.3,0-.6-.1-.8-.3s-.3-.5-.3-.9.1-.7.3-.9.6-.3,1-.3h.4Z"/>
        <path class="cls-1" d="M25,15.6h3.6c.9,0,1.7.1,2.4.3s1.3.6,1.8,1.2c1.4,1.5,2.1,3.8,2.1,6.8s0,1.9-.2,2.8-.4,1.6-.7,2.2-.7,1.3-1.1,1.8c-.4.4-.8.7-1.2,1s-.9.4-1.4.5-1.1.1-1.7.1h-3.6c-.5,0-.9,0-1.1-.3s-.4-.4-.5-.8-.1-.8-.1-1.3v-12.3c0-.7.1-1.3.4-1.6s.7-.5,1.3-.5ZM26.1,18.3v11.4h2.1c.5,0,.8,0,1.1,0s.5-.1.8-.2.5-.3.7-.5c.9-1,1.4-2.6,1.4-5s-.2-2.9-.6-3.7-.9-1.3-1.5-1.6-1.3-.3-2.2-.3h-1.8Z"/>
      </g>
    </g>
  </g>
</svg>