<?xml version="1.0" encoding="UTF-8"?>
<svg xmlns="http://www.w3.org/2000/svg" version="1.1" viewBox="0 0 45 50">
  <defs>
    <style>
      .cls-1 {
        fill: #00aeef;
      }

      .cls-2 {
        fill: #fff;
      }

      .cls-3 {
        fill: none;
      }
    </style>
  </defs>
  <!-- Generator: Adobe Illustrator 28.6.0, SVG Export Plug-In . SVG Version: 1.2.0 Build 709)  -->
  <g>
    <g id="Layer_1">
      <rect class="cls-3" y="0" width="45" height="50"/>
      <polygon class="cls-3" points="10 12.5 35 12.5 34.9 37.5 9.9 37.5 10 12.5"/>
      <path class="cls-2" d="M-41.4,27.1v-1.8c0-1.6,1.1-2.8,2.5-3.2.4-.1.7-.3.9-.8.3-.8.6-1.5.9-2.3.6-1.4,1.8-2.2,3.3-2.2h7c1.1,0,2.1.5,2.8,1.4.7.9,1.5,1.8,2.2,2.7.5.7,1.1,1,2,1.2,1,.2,1.9.5,2.6,1.3.6.7.9,1.4.9,2.3v3.5c0,.5-.3.8-.8.9h-1.2c-.3,0-.5.1-.6.4-.4,1.1-1.1,1.8-2.1,2.3-1.8.8-4.3-.3-4.8-2.3,0-.3-.2-.4-.5-.4h-4.9c-.3,0-.4,0-.5.4-.4,1.4-1.8,2.5-3.3,2.5s-3-.9-3.5-2.3c-.2-.5-.5-.7-1-.7h-1c-.5,0-.8-.3-.8-.8v-2.2h-.1ZM-33.6,21.8h2.6c.3,0,.4,0,.4-.4v-2.6c0-.3,0-.4-.4-.4h-3c-.8,0-1.4.5-1.8,1.1-.3.6-.5,1.2-.8,1.8,0,.3,0,.4.3.4h2.7ZM-23.1,21.8c-.7-.9-1.4-1.8-2.1-2.6-.4-.5-1-.8-1.6-.8h-1.9c-.3,0-.4,0-.4.4v2.5c0,.4.1.5.5.5h5.5ZM-35.3,27.2c-1.2,0-2.2,1-2.2,2.2s1,2.2,2.2,2.2,2.2-.9,2.2-2.2-.9-2.2-2.2-2.2ZM-22.5,31.6c1.2,0,2.2-.9,2.2-2.2s-1-2.2-2.2-2.2-2.2.9-2.2,2.1.9,2.2,2.2,2.2h0Z"/>
      <path class="cls-1" d="M-29.5,23.3h-7.4c-.6,0-1.2.2-1.7.3-.9.3-1.3.8-1.3,1.8v2.5q0,.7.8.7c.4,0,.4-.4.5-.6.5-1.4,2-2.4,3.5-2.3,1.6,0,3,1.1,3.4,2.6,0,.3.2.4.5.4h4.9c.3,0,.4-.1.5-.4.4-1.2,1.2-2,2.4-2.4,2-.6,3.8.4,4.5,2.3.2.4.7.6,1,.4,0,0,.2-.2.2-.3v-2.9c0-.7-.5-1.3-1.2-1.6-.9-.3-1.9-.6-2.9-.6h-7.7Z"/>
      <path class="cls-2" d="M34.8,23.4c0-1.1-.4-2-1.4-2.5-.3,0-.4-.3-.2-.7.3-.7,0-1.4-.7-1.4h-.4c-.5,0-.7-.2-.9-.7-.6-1.7-1.7-3-3.3-3.5-1.8-.6-3.6-.8-5.4-.8h-.1c-.2,0-.2,0-.2,0-1.5.2-2.8.2-4.3.5-1.7.4-3.1,1.3-3.9,3.2-.3.9-.7,1.3-1.6,1.3-.7,0-1,.7-.7,1.3,0,.4,0,.6-.2.8-1,.5-1.3,1.4-1.4,2.5-.3,2.5-.3,5.1.2,7.6.2,1,.8,1.5,1.3,2.2.1.2.3.2.5.2h2.7c.4,0,.7-.3.9-.7,0,0,.2-.3.3-.3,1.1-.2,2.3-.5,3.4-.6,3.2-.3,6.4-.2,9.5.6,0,0,.3.2.3.3.2.5.5.7,1,.7s1.4,0,2.1,0c1.2.3,1.5-.9,2.1-1.5.2,0,.2-.3.2-.5.1-1.3.4-2.6.4-3.9,0-1.3,0-2.8-.2-4.1ZM15.3,24.4c-.6,0-1.2.2-1.9.2v.2c-.4,0-.9,0-1.4-.3-.5-.2-.7-1-.5-1.4,0,0,.3-.3.5-.3.9,0,1.7.3,2.5.6.3,0,.6.3.9.5.2,0,.3.2.3.4-.2,0-.3.2-.4.2ZM27.5,29.3c-.3,0-.7.2-1,.2h-8.3c-.4,0-.9,0-1.3-.4-.6-.4-.6-1,0-1.3.4-.3.8-.6,1.2-.6,2.1-.4,4.2-.9,6.3-.4,1.1.2,2.1.5,3.1.8.3,0,.6.4.6.9.1.5-.3.8-.6.9ZM29,20.4c-2.2,0-4.4-.3-6.6-.3h-.1c-2.2,0-4.5.2-6.7.2s-1-.3-.6-1.2c0-.2.3-.5.3-.7.6-1.3,1.5-1.9,2.7-2.2,2.6-.6,5.2-.7,7.8-.2.6.2,1.3.4,1.9.6,1.1.4,1.6,1.3,2,2.4.5,1.2.4,1.3-.7,1.3ZM32.9,24.3c-.5.2-1.1.3-1.4.3-.8,0-1.3-.2-1.9-.2,0,0-.3-.3-.4-.3,0-.2.2-.5.3-.5.6-.3,1.2-.6,1.8-.8.4-.2.9-.3,1.3-.3s.6,0,.7.4c.1.6,0,1.3-.4,1.3Z"/>
      <rect class="cls-1" x="9.9" y="33.8" width="25" height="2.5" rx="1.2" ry="1.2"/>
    </g>
  </g>
</svg>