<?xml version="1.0" encoding="UTF-8"?>
<svg id="Layer_1" xmlns="http://www.w3.org/2000/svg" version="1.1" viewBox="0 0 45 50">
  <!-- Generator: Adobe Illustrator 29.1.0, SVG Export Plug-In . SVG Version: 2.1.0 Build 142)  -->
  <defs>
    <style>
      .st0 {
        fill: #00aeef;
      }

      .st1 {
        fill: #fff;
      }

      .st2 {
        fill: none;
      }
    </style>
  </defs>
  <rect class="st2" width="45" height="50"/>
  <polygon class="st2" points="10 12.5 35 12.5 34.9 37.5 9.9 37.5 10 12.5"/>
  <path class="st1" d="M33.6,12.5v23h-9.2c-2.3,2-5.9,2.3-8.7,1.7s-4.3-1.4-4.4-3.5v-17.6c.2-2.5,4-3.6,6.1-3.6h.1c0,0,16.1,0,16.1,0ZM18,13.7c-1.1,0-2.3.2-3.3.6-1.6.6-3.2,1.8-1.2,3.2,2.3,1.5,7.2,1.5,9.5,0s1.3-1.6.2-2.5-3.6-1.3-5.2-1.3ZM32.3,13.7h-8.8c.8.6,1.6,1.3,1.7,2.4-.1,5.9.2,11.9,0,17.8s0,.2,0,.4h7.2V13.7ZM23.9,18.4c-2,1.4-4.7,1.7-7.1,1.5s-3-.6-4.2-1.5v15.7c0,.2.6.7.8.8,2.4,1.7,7.4,1.7,9.8,0s.8-.6.8-.8v-15.7Z"/>
  <path class="st0" d="M23.9,18.4v15.7c0,.2-.6.7-.8.8-2.4,1.7-7.4,1.7-9.8,0-.2-.1-.8-.6-.8-.8v-15.7c1.2.8,2.7,1.3,4.2,1.5,2.4.2,5.1,0,7.1-1.5Z"/>
  <path class="st0" d="M32.3,13.7v20.5h-7.2c0-.1,0-.2,0-.4.2-5.9-.1-11.9,0-17.8-.1-1.1-.9-1.8-1.7-2.4h8.8Z"/>
  <path class="st0" d="M18,13.7c1.6,0,3.9.3,5.2,1.3s.9,1.8-.2,2.5c-2.3,1.5-7.2,1.5-9.5,0-2-1.4-.4-2.6,1.2-3.2s2.2-.5,3.3-.6ZM18,14.8c-.9,0-2.7.3-2.8,1.4s2.6,1.5,3.5,1.5,2.9-.5,2.5-1.7-2-1.1-2.8-1.2h-.4Z"/>
  <path class="st1" d="M18,14.8h.4c.8,0,2.5.2,2.8,1.1s-1.6,1.7-2.5,1.7-3.6,0-3.5-1.5,1.9-1.4,2.8-1.4ZM19.7,16.2c-.9-.2-1.9-.2-2.8,0,.8.2,1.7.3,2.5.1s.3,0,.3-.1Z"/>
  <path class="st1" d="M19.7,16.2c0,0-.2.1-.3.1-.8.2-1.7.1-2.5-.1.9-.3,1.9-.2,2.8,0Z"/>
</svg>