<?xml version="1.0" encoding="UTF-8"?>
<svg xmlns="http://www.w3.org/2000/svg" version="1.1" viewBox="0 0 45 50">
  <defs>
    <style>
      .cls-1 {
        fill: #00aeef;
      }

      .cls-2 {
        fill: #fff;
      }

      .cls-3 {
        fill: none;
      }
    </style>
  </defs>
  <!-- Generator: Adobe Illustrator 28.6.0, SVG Export Plug-In . SVG Version: 1.2.0 Build 709)  -->
  <g>
    <g id="Layer_1">
      <rect class="cls-3" y="0" width="45" height="50"/>
      <rect class="cls-3" x="10" y="12.5" width="25" height="25"/>
      <path class="cls-2" d="M17.4,16.1c.1.3.2.5.3.8,1,2.4,1.9,4.8,2.9,7.2,0,.2.2.3.4.3,0,0,.2,0,.3,0,.6,0,.9.4.9,1.1,0,3.1-2,5.9-4.7,6.6-3.6.9-7.1-1.8-7.5-6,0-.2,0-.5,0-.7,0-.5.4-1,.8-1,.5,0,.7-.2.9-.7,1.1-2.8,2.2-5.5,3.3-8.3,0,0,0-.2.1-.3-.6-.2-1.1-.5-1.7-.7-.5-.2-.7-.8-.5-1.3.2-.5.7-.7,1.2-.5,1.4.6,2.8,1.2,4.2,1.8,1.4.6,2.7,1.2,4.1,1.7,0,0,.2,0,.3.1,0-.1,0-.2,0-.3,0-.6,0-1.2,0-1.7,0-.6.4-1.1.9-1.1.5,0,.9.4.9,1.1,0,.8,0,1.6,0,2.4,0,.3,0,.4.3.5,2.6,1.1,5.2,2.2,7.8,3.3.3.1.6.4.7.8,0,.4,0,.7-.3.9-.3.2-.6.3-.9.1-.5-.2-1-.4-1.5-.6,0,0-.1,0-.2,0,0,.1,0,.2.1.3,1,2.5,2,5,3,7.5,0,.2.2.3.4.3,0,0,.2,0,.3,0,.6,0,.9.4.9,1.1,0,2.4-1,4.3-2.7,5.6-3.7,2.9-8.9.2-9.5-4.9,0-.3,0-.5,0-.8,0-.6.4-1.1.9-1.1.4,0,.6-.2.8-.6,1.1-2.7,2.2-5.4,3.3-8.2,0-.1,0-.2.1-.3-3.5-1.5-6.9-2.9-10.4-4.4ZM18.8,24.3c-.9-2.3-1.8-4.5-2.7-6.8-.9,2.3-1.8,4.5-2.7,6.8h5.5ZM31.6,29.6c-.9-2.3-1.8-4.5-2.7-6.8-.9,2.3-1.8,4.5-2.7,6.8h5.5Z"/>
      <path class="cls-1" d="M33.1,31.6h-8.5c.4,2.4,2.4,4.1,4.7,3.9,1.8-.2,3.8-2.2,3.8-3.9Z"/>
      <path class="cls-1" d="M20.4,26.3h-8.5c.3,1.8,1.8,3.8,4.1,3.9,2.1,0,4.1-1.6,4.4-3.9Z"/>
    </g>
  </g>
</svg>