<?xml version="1.0" encoding="UTF-8"?>
<svg xmlns="http://www.w3.org/2000/svg" version="1.1" viewBox="0 0 45 50">
  <defs>
    <style>
      .cls-1 {
        fill: #fff;
      }

      .cls-2 {
        fill: none;
      }

      .cls-3 {
        fill: #00aeef;
      }
    </style>
  </defs>
  <!-- Generator: Adobe Illustrator 28.6.0, SVG Export Plug-In . SVG Version: 1.2.0 Build 709)  -->
  <g>
    <g id="Layer_1">
      <rect class="cls-2" width="45" height="50"/>
      <rect class="cls-2" x="10" y="12.5" width="25" height="25"/>
      <g>
        <path class="cls-1" d="M10,33.8c.14-.18.26-.37.42-.53.51-.52,1.03-1.04,1.55-1.55.11-.11.14-.19.07-.35-.4-.84-.24-1.78.4-2.46.06-.06.11-.12.17-.17,4.55-4.55,9.11-9.1,13.65-13.66.7-.71,1.72-1.02,2.71-.54.06.03.2-.02.26-.08.53-.52,1.05-1.05,1.58-1.56.16-.16.35-.28.53-.42.13,0,.26,0,.39,0,.18.14.38.27.55.43.79.78,1.57,1.56,2.35,2.34.52.52.52.86,0,1.38-.53.53-1.07,1.07-1.61,1.6-.1.1-.12.18-.06.31.41.87.26,1.8-.41,2.5-.28.29-.57.58-.86.86-4.32,4.32-8.65,8.65-12.97,12.97-.41.41-.88.68-1.47.74-.41.04-.79-.03-1.16-.21-.14-.07-.21-.05-.31.06-.54.55-1.08,1.08-1.62,1.62-.5.5-.85.5-1.35,0-.79-.79-1.58-1.57-2.36-2.37-.16-.16-.29-.36-.44-.54,0-.13,0-.26,0-.39ZM31.75,19.47c-.11-.19-.19-.4-.33-.55-.94-.96-1.89-1.9-2.84-2.85-.42-.42-.8-.42-1.22,0-4.58,4.58-9.17,9.17-13.75,13.75-.41.41-.41.8,0,1.21.93.93,1.85,1.85,2.78,2.78.48.48.83.48,1.31,0,4.55-4.55,9.1-9.1,13.65-13.65.06-.06.13-.11.17-.18.08-.15.15-.31.25-.51ZM30.25,15.57c.55.55,1.1,1.1,1.61,1.61.42-.42.86-.86,1.26-1.27-.52-.52-1.07-1.08-1.61-1.61-.42.42-.85.85-1.27,1.27ZM13.46,35.63c.43-.43.87-.87,1.28-1.28-.54-.54-1.09-1.09-1.62-1.62-.42.42-.86.86-1.28,1.28.53.53,1.08,1.08,1.62,1.62Z"/>
        <path class="cls-3" d="M30.26,31.9c-.01.39-.14.62-.41.76-.28.14-.57.11-.8-.1-.56-.54-1.12-1.09-1.65-1.65-.26-.28-.22-.73.05-.99.26-.26.7-.3.97-.04.57.54,1.12,1.1,1.67,1.67.1.11.14.28.17.36Z"/>
        <path class="cls-3" d="M29.82,26.87s.14.02.23.06c.67.24,1.34.48,2.01.73.42.16.62.57.47.96-.14.39-.56.57-.98.42-.67-.24-1.34-.48-2.01-.73-.37-.14-.56-.47-.49-.85.06-.32.38-.58.78-.58Z"/>
        <path class="cls-3" d="M25.24,31.5c.22,0,.46.15.58.46.27.7.53,1.41.77,2.13.13.38-.07.78-.44.91-.37.14-.78-.03-.93-.4-.28-.72-.54-1.44-.79-2.17-.15-.46.21-.91.8-.92Z"/>
        <path class="cls-3" d="M15.58,17.2c.09.05.29.12.43.25.52.49,1.02,1,1.52,1.51.31.32.31.78.02,1.07-.29.29-.74.28-1.05-.02-.52-.51-1.03-1.02-1.53-1.53-.23-.24-.3-.52-.16-.83.12-.29.36-.43.78-.44Z"/>
        <path class="cls-3" d="M15.96,22.33c0,.5-.46.85-.94.69-.71-.24-1.42-.5-2.13-.77-.39-.15-.57-.56-.43-.94.14-.37.54-.57.94-.43.7.24,1.39.5,2.08.76.32.12.48.37.48.69Z"/>
        <path class="cls-3" d="M19.75,18.43c-.22,0-.46-.15-.57-.44-.27-.71-.53-1.43-.78-2.15-.13-.37.07-.75.43-.89.37-.14.79.01.93.39.28.72.55,1.46.8,2.19.15.45-.23.91-.81.9Z"/>
      </g>
    </g>
  </g>
</svg>