<?xml version="1.0" encoding="UTF-8"?><svg id="Layer_1" xmlns="http://www.w3.org/2000/svg" width="475.4352mm" height="177.77028mm" viewBox="0 0 1347.69034 503.91577"><path d="M165.10703,382.05362l-27.26068,111.86721H3.77632L144.2838,10.71725h172.0379l144.12032,483.20358h-139.7849l-30.80787-111.86721h-124.74226.00004ZM271.91636,285.95163l-22.20267-86.77411c-7.16003-27.26068-16.48779-66.67372-23.64782-95.37968h-1.44515c-7.16003,28.70596-14.32006,68.84131-21.48011,96.03656l-20.82323,86.0518h89.59895l.00004.06543Z" fill="none" stroke="#010101" stroke-miterlimit="2.62754" stroke-width="5.66929"/><path d="M522.12344,17.15459c29.36272-4.99206,93.21185-10.0502,152.72552-10.0502s109.69962,4.26975,147.66755,23.64782c37.31104,17.21049,65.22861,52.35378,65.22861,98.92647s-22.20271,80.27135-78.89175,101.81701v1.44527c59.51367,16.48753,94.65696,60.23639,94.65696,117.58223s-21.48007,80.99366-53.79881,105.36444c-36.5884,27.26068-96.75904,43.0259-200.02116,43.0259s-101.09446-3.61286-127.63254-7.88261V17.15459h.06563ZM650.47858,196.3524h25.81557c55.17825,0,81.71638-19.37808,81.71638-50.18619s-21.48007-46.57333-65.22861-46.57333-33.69818,1.44527-42.30334,2.89055v93.93441-.06543ZM650.47858,402.8109c9.32772,1.44527,20.82319,1.44527,37.31104,1.44527,43.0259,0,79.54863-17.21049,79.54863-59.51343s-37.31104-56.62353-86.0518-56.62353h-30.80787v114.69168Z" fill="none" stroke="#010101" stroke-miterlimit="2.62754" stroke-width="5.66929"/><path d="M1336.52812,481.70305c-18.65544,8.60492-63.7835,19.37808-121.85197,19.37808-180.64309,0-260.25739-112.59017-260.25739-240.87947S1079.16103,2.83465,1223.28139,2.83465s101.09438,10.77315,121.12934,21.48023l-25.09294,101.81701c-21.48007-8.60492-50.90851-17.21049-89.59899-17.21049-74.55633,0-139.0623,43.74821-139.0623,142.67532s52.35362,142.67532,141.23005,142.67532,66.6738-6.43733,86.77435-14.31994l17.93296,101.81701-.06575-.06607Z" fill="none" stroke="#010101" stroke-miterlimit="2.62754" stroke-width="5.66929"/><polygon points="460.44204 375.72985 342.251 493.92082 398.47958 493.92082 460.44204 431.95836 460.44204 375.72985" fill="none" stroke="#ed2224" stroke-miterlimit="2.62754" stroke-width=".65688"/><polygon points="398.47958 493.92082 454.70815 493.92082 460.44204 488.18694 460.44204 431.95836 398.47958 493.92082" fill="none" stroke="#ed2224" stroke-miterlimit="2.62754" stroke-width=".65688"/><polygon points="460.44204 207.04405 173.56533 493.92082 229.79385 493.92082 460.44204 263.27257 460.44204 207.04405" fill="none" stroke="#ed2224" stroke-miterlimit="2.62754" stroke-width=".65688"/><polygon points="460.44204 319.50121 286.02242 493.92082 342.251 493.92082 460.44204 375.72985 460.44204 319.50121" fill="none" stroke="#ed2224" stroke-miterlimit="2.62754" stroke-width=".65688"/><polygon points="460.44204 150.81554 117.33676 493.92082 173.56533 493.92082 460.44204 207.04405 460.44204 150.81554" fill="none" stroke="#ed2224" stroke-miterlimit="2.62754" stroke-width=".65688"/><polygon points="319.39749 10.71727 3.77633 326.33837 3.77633 382.567 375.62606 10.71727 319.39749 10.71727" fill="none" stroke="#ed2224" stroke-miterlimit="2.62754" stroke-width=".65688"/><polygon points="38.2546 10.71727 3.77633 45.19554 3.77633 101.42418 94.48318 10.71727 38.2546 10.71727" fill="none" stroke="#ed2224" stroke-miterlimit="2.62754" stroke-width=".65688"/><polygon points="94.48318 10.71727 3.77633 101.42418 3.77633 157.6527 150.71176 10.71727 94.48318 10.71727" fill="none" stroke="#ed2224" stroke-miterlimit="2.62754" stroke-width=".65688"/><polygon points="460.44204 94.58702 61.10818 493.92082 117.33676 493.92082 460.44204 150.81554 460.44204 94.58702" fill="none" stroke="#ed2224" stroke-miterlimit="2.62754" stroke-width=".65688"/><polygon points="150.71176 10.71727 3.77633 157.6527 3.77633 213.88121 206.94033 10.71727 150.71176 10.71727" fill="none" stroke="#ed2224" stroke-miterlimit="2.62754" stroke-width=".65688"/><polygon points="3.77633 10.71727 3.77633 45.19554 38.2546 10.71727 3.77633 10.71727" fill="none" stroke="#ed2224" stroke-miterlimit="2.62754" stroke-width=".65688"/><polygon points="460.44204 493.92082 460.44204 488.18694 454.70815 493.92082 460.44204 493.92082" fill="none" stroke="#ed2224" stroke-miterlimit="2.62754" stroke-width=".65688"/><polygon points="206.94033 10.71727 3.77633 213.88121 3.77633 270.10973 263.16891 10.71727 206.94033 10.71727" fill="none" stroke="#ed2224" stroke-miterlimit="2.62754" stroke-width=".65688"/><polygon points="460.44204 10.71727 431.85464 10.71727 3.77633 438.79552 3.77633 493.92082 4.8796 493.92082 460.44204 38.35851 460.44204 10.71727" fill="none" stroke="#ed2224" stroke-miterlimit="2.62754" stroke-width=".65688"/><polygon points="460.44204 38.35851 4.8796 493.92082 61.10818 493.92082 460.44204 94.58702 460.44204 38.35851" fill="none" stroke="#ed2224" stroke-miterlimit="2.62754" stroke-width=".65688"/><polygon points="263.16891 10.71727 3.77633 270.10973 3.77633 326.33837 319.39749 10.71727 263.16891 10.71727" fill="none" stroke="#ed2224" stroke-miterlimit="2.62754" stroke-width=".65688"/><polygon points="375.62606 10.71727 3.77633 382.567 3.77633 438.79552 431.85464 10.71727 375.62606 10.71727" fill="none" stroke="#ed2224" stroke-miterlimit="2.62754" stroke-width=".65688"/><polygon points="460.44204 263.27257 229.79385 493.92082 286.02242 493.92082 460.44204 319.50121 460.44204 263.27257" fill="none" stroke="#ed2224" stroke-miterlimit="2.62754" stroke-width=".65688"/><polygon points="903.51034 101.34728 522.05782 482.79973 522.05782 498.91289 562.17324 498.91289 903.51034 157.57579 903.51034 101.34728" fill="none" stroke="#ed2224" stroke-miterlimit="2.62754" stroke-width=".65688"/><polygon points="903.51034 157.57579 562.17324 498.91289 618.40182 498.91289 903.51034 213.80443 903.51034 157.57579" fill="none" stroke="#ed2224" stroke-miterlimit="2.62754" stroke-width=".65688"/><polygon points="903.51034 213.80443 618.40182 498.91289 674.6304 498.91289 903.51034 270.03295 903.51034 213.80443" fill="none" stroke="#ed2224" stroke-miterlimit="2.62754" stroke-width=".65688"/><polygon points="522.05782 314.114 829.06747 7.10436 772.83889 7.10436 522.05782 257.88536 522.05782 314.114" fill="none" stroke="#ed2224" stroke-miterlimit="2.62754" stroke-width=".65688"/><polygon points="522.05782 370.34264 885.29604 7.10436 829.06747 7.10436 522.05782 314.114 522.05782 370.34264" fill="none" stroke="#ed2224" stroke-miterlimit="2.62754" stroke-width=".65688"/><polygon points="522.05782 257.88536 772.83889 7.10436 716.61031 7.10436 522.05782 201.65685 522.05782 257.88536" fill="none" stroke="#ed2224" stroke-miterlimit="2.62754" stroke-width=".65688"/><polygon points="903.51034 382.4901 787.08755 498.91289 843.31606 498.91289 903.51034 438.71862 903.51034 382.4901" fill="none" stroke="#ed2224" stroke-miterlimit="2.62754" stroke-width=".65688"/><polygon points="843.31606 498.91289 899.54464 498.91289 903.51034 494.94719 903.51034 438.71862 843.31606 498.91289" fill="none" stroke="#ed2224" stroke-miterlimit="2.62754" stroke-width=".65688"/><polygon points="522.05782 7.10436 522.05782 32.9713 547.92465 7.10436 522.05782 7.10436" fill="none" stroke="#ed2224" stroke-miterlimit="2.62754" stroke-width=".65688"/><polygon points="903.51034 326.26158 730.85897 498.91289 787.08755 498.91289 903.51034 382.4901 903.51034 326.26158" fill="none" stroke="#ed2224" stroke-miterlimit="2.62754" stroke-width=".65688"/><polygon points="903.51034 270.03295 674.6304 498.91289 730.85897 498.91289 903.51034 326.26158 903.51034 270.03295" fill="none" stroke="#ed2224" stroke-miterlimit="2.62754" stroke-width=".65688"/><polygon points="604.15316 7.10436 547.92465 7.10436 522.05782 32.9713 522.05782 89.19982 604.15316 7.10436" fill="none" stroke="#ed2224" stroke-miterlimit="2.62754" stroke-width=".65688"/><polygon points="522.05782 201.65685 716.61031 7.10436 660.38174 7.10436 522.05782 145.42833 522.05782 201.65685" fill="none" stroke="#ed2224" stroke-miterlimit="2.62754" stroke-width=".65688"/><polygon points="903.51034 498.91289 903.51034 494.94719 899.54464 498.91289 903.51034 498.91289" fill="none" stroke="#ed2224" stroke-miterlimit="2.62754" stroke-width=".65688"/><polygon points="903.51034 45.11876 522.05782 426.57115 522.05782 482.79973 903.51034 101.34728 903.51034 45.11876" fill="none" stroke="#ed2224" stroke-miterlimit="2.62754" stroke-width=".65688"/><polygon points="903.51034 7.10436 885.29604 7.10436 522.05782 370.34264 522.05782 426.57115 903.51034 45.11876 903.51034 7.10436" fill="none" stroke="#ed2224" stroke-miterlimit="2.62754" stroke-width=".65688"/><polygon points="522.05782 145.42833 660.38174 7.10436 604.15316 7.10436 522.05782 89.19982 522.05782 145.42833" fill="none" stroke="#ed2224" stroke-miterlimit="2.62754" stroke-width=".65688"/><polygon points="1344.41079 54.04686 954.41873 444.03881 954.41873 500.26738 1344.41079 110.2755 1344.41079 54.04686" fill="none" stroke="#ed2224" stroke-miterlimit="2.62754" stroke-width=".65688"/><polygon points="1344.41079 110.2755 954.41873 500.26738 954.41873 501.0811 1009.83364 501.0811 1344.41079 166.50402 1344.41079 110.2755" fill="none" stroke="#ed2224" stroke-miterlimit="2.62754" stroke-width=".65688"/><polygon points="1344.41079 447.64684 1290.97646 501.0811 1344.41079 501.0811 1344.41079 447.64684" fill="none" stroke="#ed2224" stroke-miterlimit="2.62754" stroke-width=".65688"/><polygon points="1344.41079 335.18968 1178.51931 501.0811 1234.74795 501.0811 1344.41079 391.41832 1344.41079 335.18968" fill="none" stroke="#ed2224" stroke-miterlimit="2.62754" stroke-width=".65688"/><polygon points="1344.41079 391.41832 1234.74795 501.0811 1290.97646 501.0811 1344.41079 447.64684 1344.41079 391.41832" fill="none" stroke="#ed2224" stroke-miterlimit="2.62754" stroke-width=".65688"/><polygon points="1344.41079 278.96105 1122.29067 501.0811 1178.51931 501.0811 1344.41079 335.18968 1344.41079 278.96105" fill="none" stroke="#ed2224" stroke-miterlimit="2.62754" stroke-width=".65688"/><polygon points="1344.41079 222.73253 1066.06216 501.0811 1122.29067 501.0811 1344.41079 278.96105 1344.41079 222.73253" fill="none" stroke="#ed2224" stroke-miterlimit="2.62754" stroke-width=".65688"/><polygon points="1344.41079 166.50402 1009.83364 501.0811 1066.06216 501.0811 1344.41079 222.73253 1344.41079 166.50402" fill="none" stroke="#ed2224" stroke-miterlimit="2.62754" stroke-width=".65688"/><polygon points="954.41873 387.81017 1339.39443 2.83458 1283.1658 2.83458 954.41873 331.58165 954.41873 387.81017" fill="none" stroke="#ed2224" stroke-miterlimit="2.62754" stroke-width=".65688"/><polygon points="954.41873 275.35314 1226.93728 2.83458 1170.70864 2.83458 954.41873 219.12462 954.41873 275.35314" fill="none" stroke="#ed2224" stroke-miterlimit="2.62754" stroke-width=".65688"/><polygon points="954.41873 331.58165 1283.1658 2.83458 1226.93728 2.83458 954.41873 275.35314 954.41873 331.58165" fill="none" stroke="#ed2224" stroke-miterlimit="2.62754" stroke-width=".65688"/><polygon points="1344.41079 2.83458 1339.39443 2.83458 954.41873 387.81017 954.41873 444.03881 1344.41079 54.04686 1344.41079 2.83458" fill="none" stroke="#ed2224" stroke-miterlimit="2.62754" stroke-width=".65688"/><polygon points="954.41873 2.83458 954.41873 50.43883 1002.02297 2.83458 954.41873 2.83458" fill="none" stroke="#ed2224" stroke-miterlimit="2.62754" stroke-width=".65688"/><polygon points="1058.25161 2.83458 1002.02297 2.83458 954.41873 50.43883 954.41873 106.66747 1058.25161 2.83458" fill="none" stroke="#ed2224" stroke-miterlimit="2.62754" stroke-width=".65688"/><polygon points="954.41873 162.89611 1114.48013 2.83458 1058.25161 2.83458 954.41873 106.66747 954.41873 162.89611" fill="none" stroke="#ed2224" stroke-miterlimit="2.62754" stroke-width=".65688"/><polygon points="954.41873 219.12462 1170.70864 2.83458 1114.48013 2.83458 954.41873 162.89611 954.41873 219.12462" fill="none" stroke="#ed2224" stroke-miterlimit="2.62754" stroke-width=".65688"/></svg>