<?xml version="1.0" encoding="UTF-8"?>
<svg xmlns="http://www.w3.org/2000/svg" version="1.1" viewBox="0 0 45 50">
  <defs>
    <style>
      .cls-1 {
        fill: #fff;
      }

      .cls-2 {
        fill: none;
      }

      .cls-3 {
        fill: #00aeef;
      }
    </style>
  </defs>
  <!-- Generator: Adobe Illustrator 28.6.0, SVG Export Plug-In . SVG Version: 1.2.0 Build 709)  -->
  <g>
    <g id="Layer_1">
      <path class="cls-1" d="M12.59,34.91h19.83c0-.11,0-.21,0-.31,0-3.18,0-6.36,0-9.54,0-.72.49-1.29,1.17-1.35.76-.07,1.41.51,1.42,1.28,0,.97,0,1.94,0,2.91,0,2.42,0,4.85,0,7.27,0,1.42-.9,2.32-2.32,2.32-6.79,0-13.57,0-20.36,0-1.42,0-2.32-.9-2.32-2.32,0-3.38,0-6.75,0-10.13,0-.93.83-1.55,1.68-1.28.55.17.9.67.9,1.29,0,1.91,0,3.82,0,5.74,0,1.27,0,2.53,0,3.8v.31Z"/>
      <path class="cls-3" d="M21.21,27.9c0-.16,0-.26,0-.36,0-4.55,0-9.11,0-13.66,0-.8.55-1.39,1.3-1.38.67,0,1.24.53,1.28,1.21,0,.11,0,.22,0,.32,0,4.51,0,9.02,0,13.52v.34c.1-.09.16-.14.22-.2.81-.81,1.62-1.63,2.44-2.44.71-.7,1.87-.41,2.15.52.16.52.01.97-.37,1.35-.85.85-1.7,1.7-2.55,2.55-.72.72-1.43,1.44-2.15,2.15-.66.66-1.39.67-2.05.01-1.58-1.57-3.15-3.15-4.72-4.73-.73-.74-.48-1.9.48-2.19.52-.16.97-.02,1.35.37.79.8,1.59,1.59,2.38,2.38.06.06.13.12.23.22Z"/>
      <rect class="cls-2" width="45" height="50"/>
      <rect class="cls-2" x="10" y="12.5" width="25" height="25"/>
    </g>
  </g>
</svg>