<?xml version="1.0" encoding="UTF-8"?>
<svg xmlns="http://www.w3.org/2000/svg" version="1.1" viewBox="0 0 45 50">
  <defs>
    <style>
      .cls-1 {
        fill: #fff;
      }

      .cls-2 {
        fill: none;
      }

      .cls-3 {
        fill: #00aeef;
      }
    </style>
  </defs>
  <!-- Generator: Adobe Illustrator 28.6.0, SVG Export Plug-In . SVG Version: 1.2.0 Build 709)  -->
  <g>
    <g id="Layer_1">
      <rect class="cls-2" width="45" height="50"/>
      <rect class="cls-2" x="10" y="12.5" width="25" height="25"/>
      <path class="cls-1" d="M21.99,30.56v4.71c0,.74-.17,1.3-.51,1.67s-.78.56-1.34.56-.97-.19-1.3-.56-.5-.93-.5-1.67v-5.65c0-.89-.03-1.58-.09-2.08s-.23-.9-.49-1.21-.69-.47-1.27-.47c-1.16,0-1.92.4-2.29,1.19s-.55,1.94-.55,3.43v4.79c0,.74-.17,1.29-.5,1.67-.33.38-.77.56-1.32.56s-.98-.19-1.32-.56c-.34-.38-.51-.93-.51-1.67v-10.14c0-.67.15-1.17.46-1.52.31-.35.71-.52,1.21-.52s.89.16,1.21.49c.32.32.49.77.49,1.34v.34c.61-.74,1.27-1.28,1.97-1.62.7-.35,1.48-.52,2.34-.52s1.66.18,2.3.53c.64.35,1.17.89,1.58,1.61.6-.73,1.24-1.27,1.92-1.62.68-.35,1.44-.53,2.27-.53.97,0,1.8.19,2.5.57s1.22.93,1.57,1.64c.3.64.45,1.65.45,3.02v6.92c0,.74-.17,1.3-.51,1.67-.34.37-.78.56-1.34.56s-.98-.19-1.32-.56c-.34-.38-.51-.93-.51-1.67v-5.96c0-.76-.03-1.37-.1-1.83-.06-.46-.24-.84-.53-1.15-.29-.31-.72-.47-1.3-.47-.47,0-.91.14-1.33.42-.42.28-.75.65-.98,1.12-.26.6-.39,1.65-.39,3.17Z"/>
      <path class="cls-3" d="M30.9,19.94h3.14c.31,0,.55.06.71.19s.25.3.25.52c0,.2-.07.36-.2.5-.13.14-.33.2-.59.2h-4.42c-.3,0-.54-.08-.7-.25-.17-.17-.25-.36-.25-.58,0-.14.06-.34.16-.57.11-.24.23-.43.35-.56.53-.55,1.01-1.03,1.44-1.42.43-.39.73-.65.92-.78.33-.23.6-.47.82-.7.22-.23.38-.47.5-.72.11-.25.17-.49.17-.72,0-.26-.06-.49-.18-.69-.12-.2-.29-.36-.5-.47-.21-.11-.44-.17-.69-.17-.52,0-.94.23-1.24.69-.04.06-.11.22-.2.49s-.2.47-.32.62-.29.22-.52.22c-.2,0-.37-.07-.5-.2-.13-.13-.2-.31-.2-.54,0-.28.06-.56.19-.86.12-.3.31-.57.56-.82s.56-.44.94-.59c.38-.15.82-.23,1.33-.23.61,0,1.13.1,1.57.29.28.13.53.3.74.53.21.22.38.48.5.78.12.29.18.6.18.92,0,.5-.12.95-.37,1.35-.25.41-.5.72-.75.96s-.69.59-1.29,1.08c-.6.49-1.02.87-1.24,1.15-.1.11-.19.24-.29.39Z"/>
    </g>
  </g>
</svg>