<?xml version="1.0" encoding="UTF-8"?>
<svg xmlns="http://www.w3.org/2000/svg" version="1.1" xmlns:xlink="http://www.w3.org/1999/xlink" viewBox="0 0 45 50">
  <defs>
    <style>
      .cls-1 {
        fill: #00aeef;
      }

      .cls-2 {
        fill: #fff;
      }

      .cls-3, .cls-4, .cls-5 {
        fill: none;
      }

      .cls-4 {
        stroke: #ff0303;
        stroke-width: .3px;
      }

      .cls-4, .cls-5 {
        stroke-miterlimit: 10;
      }

      .cls-5 {
        stroke: #fff;
        stroke-width: 2.6px;
      }
    </style>
  </defs>
  <!-- Generator: Adobe Illustrator 28.6.0, SVG Export Plug-In . SVG Version: 1.2.0 Build 709)  -->
  <g>
    <g id="Layer_1">
      <path class="cls-2" d="M96.2-13.3c.3,0,.7,0,1.3.3.6.2.9.5,1.3.8.4.3.7.7,1.1,1.2.3.5.5.8.7,1.4.2.5.2.9.2,1.4s0,1.1-.2,1.3c-.2.3-.4.5-.9.8-.3.2-.4.4-.5.7,0,.2,0,.4.1.6-.4-.5-.9-.8-1.5-1l-.5-.2h-.1c0,0-.5-.3-.5-.3-.1,0-.2-.1-.3-.2,0,0,.2.1.3.2.4.2.8.3,1.2.3s.8-.1,1.2-.3c.7-.4,1.1-1.2,1.1-2.4s-.3-1.6-.6-2.2c-.4-.7-1-1.3-1.8-1.6-.4-.2-.7-.3-1.1-.3-.3,0-.5,0-.7.2,0,0,0,0-.1,0-.1,0-.3.1-.5.2-.5.3-.7.8-.8,1.1,0,0,0,.1,0,.2,0,0,0,0,0,0-.1-.3-.2-.4-.2-.7,0-.4,0-.5,0-.6l.2-.2c.2-.3.3-.4.5-.5.3-.1.5-.3,1-.3,0,0,.1,0,.2,0M99.6-4.5c.3.4.7.8.9,1.3.3.5.5,1,.6,1.4,0,.2,0,.4.1.6,0,.4.2.7.2,1,0,.5,0,1.2-.2,1.5-.1.3-.4.6-.7.9-.2.2-.6.3-1,.3,0,0,0,0-.1,0-.4,0-.8-.1-1.4-.3,0,0,0,0-.1,0,.1,0,.3,0,.4,0,.2,0,.4,0,.6,0h0c.5-.2,1-.5,1.3-.9.6-.6.6-1.4.6-2.2s-.3-2-.7-2.9c-.1-.2-.2-.4-.3-.5M93.8-3.2s0,0,0,0c.1.5.2.9.4,1.2,0-.1-.1-.3-.2-.4-.1-.4-.2-.7-.2-.9M96.2-14.3c0,0-.2,0-.3,0-.6,0-1,.2-1.4.4s-.6.6-.9.9c-.3.4-.3.8-.3,1.2s.1.7.3,1.1c.2.4.4.6.7.7.2,0,.4.2.5.2s0,0,0,0c0,0,.3,0,.3-.3,0-.2.2-.5.3-.8.1-.3.2-.5.4-.6.2-.1.4-.1.6-.3,0,0,.1,0,.2,0,.2,0,.4,0,.7.2.5.2,1,.6,1.3,1.1.3.5.5.9.5,1.7s-.2,1.3-.6,1.6c-.2.1-.4.2-.7.2s-.5,0-.8-.2v-.2c0,0-.5-.2-.5-.2-.3-.1-.5-.2-.7-.2-.1,0-.2,0-.3,0-.2.1-.3.4-.3.8s0,.7.3,1c.2.3.5.5.8.6,0,0,.2,0,.5.2.3.1,0,0,.6.2.7.3,1.2.8,1.6,1.4.4.7.6,1.4.6,2.3s0,1.2-.3,1.5c-.3.3-.6.6-.9.6-.1,0-.2,0-.3,0s-.4,0-.8-.2c-.7-.3-1.3-.7-1.6-1.4-.3-.7-.7-1.6-1-2.8,0-.2,0-.3-.3-.6-.2-.3,0-.2-.5-.4-.2,0-.4-.1-.5-.1s-.3,0-.4.2c-.2.2-.3.7-.3,1s.1.8.3,1.4c.2.6.5,1.2.9,1.9s.9,1.3,1.5,1.8c.6.5,1.3,1,2,1.3.6.2,1.2.4,1.8.4s.2,0,.2,0c.6,0,1.2-.2,1.6-.6.4-.3.8-.8,1-1.3.2-.5.3-1.3.3-1.9s-.2-1.2-.3-1.7c-.1-.5-.4-1.2-.7-1.7-.3-.5-.7-1.1-1.2-1.6.5-.3.9-.6,1.2-1.1.3-.5.4-1.2.4-1.8s0-1.1-.3-1.7c-.2-.6-.4-1.1-.8-1.6-.4-.6-.8-1-1.3-1.4-.5-.4-.9-.7-1.6-.9-.6-.2-1.1-.4-1.6-.4h0Z"/>
      <path class="cls-2" d="M114.2-5.4c-.5-.8-1.1-1.4-1.8-1.9-.7-.5-1.5-.9-2.4-1.3l-3.6-1.5h0c-.3-.2-.5-.3-.8-.3s-.4,0-.5.1c-.3.2-.4.7-.4,1.4V3.5c0,.5,0,.9,0,1.3,0,.4.3.6.5,1s.6.5,1.1.7l3.6,1.5c.6.2,1.2.5,1.7.6.3,0,.7.1.9.1s.3,0,.5,0c.4-.1.8-.3,1.2-.5.4-.3.8-.9,1.1-1.4.3-.5.5-1.1.7-1.9s.2.3.2-2.7-.7-5.6-2.1-7.6ZM115.3,4.2c0,.1-.1.2-.2.5-.2.8-.4,1.3-.6,1.6-.3.5-.6.8-.8,1.1-.3.2-.6.3-.9.4,0,0,0,0-.1,0-.2,0-.5,0-.7-.1-.4,0-1-.3-1.5-.5l-3.6-1.5c-.2,0-.5-.2-.6-.3,0-.1-.2-.3-.2-.4-.1-.2-.2-.2-.2-.4,0-.3,0-.7,0-1.1v-12.3c0-.3,0-.5,0-.6,0,0,.2.1.3.2l3.6,1.5c.8.3,1.6.7,2.2,1.2.6.4,1.1,1,1.5,1.7,1.3,1.9,1.9,4.3,1.9,7.1s0,1.8,0,2Z"/>
      <path class="cls-2" d="M113.8-3.2c-.4-1.1-1-1.9-1.8-2.6-.7-.7-1.5-1-2.5-1.4l-1.4-.6c-.2-.2-.4-.3-.7-.3-.6,0-1,.4-1,1h0V4.3c0,.4.2.8.6.9l2.1.8,1.1.4c.4.2.7.2,1,.2h.2s0,0,.1,0c.5,0,.9-.2,1.1-.4,0,0,0,0,0,0,1.2-.9,1.8-2.6,1.8-5.3s-.2-3.2-.7-4.3ZM112.1,5.5c-.2.1-.4.2-.6.2s0,0,0,0c-.3,0-.5,0-.8-.1s-.6-.2-1.1-.4l-2.1-.8V-7l1.8.7c.9.4,1.6.6,2.2,1.2s1.1,1.2,1.5,2.2.6,1.5.6,3.9-.5,3.8-1.4,4.4Z"/>
      <path class="cls-2" d="M-6.1-33.9c.6,0,1.1-.2,1.5-.6s.6-1,.6-1.8-.2-1.1-.5-1.5-.8-.6-1.3-.6-.7,0-.9.2-.4.3-.6.5-.3.5-.4.8-.2.7-.3.9c0,.2-.2.3-.3.4s-.3,0-.6,0-.5,0-.7-.4-.3-.6-.3-1,0-.8.3-1.3.5-.9.9-1.3.8-.7,1.4-1,1.2-.4,1.9-.4,1.1,0,1.6.3.9.5,1.3.9.6.8.8,1.3.3,1,.3,1.6,0,1.4-.4,2-.7,1.1-1.2,1.6c.5.3.9.7,1.2,1.1s.6.9.7,1.4.3,1,.3,1.6,0,1.4-.3,2-.6,1.2-1,1.7-1,.9-1.6,1.2-1.3.4-2,.4-1.4-.2-2-.5-1.1-.7-1.5-1.2-.7-1-.9-1.5-.3-1-.3-1.3,0-.8.3-1.1.5-.4.9-.4.3,0,.5.2.3.3.3.5c.3,1.1.7,1.8,1,2.4s.9.8,1.6.8.8,0,1.1-.3.6-.6.9-1,.3-1,.3-1.6c0-.9-.2-1.6-.6-2.1s-.9-.8-1.6-.8-.3,0-.6,0h-.5c-.3,0-.6,0-.8-.3s-.3-.5-.3-.9,0-.7.3-.9.6-.3,1-.3h.4v.2Z"/>
      <path class="cls-2" d="M3.1-40.6h3.6c.9,0,1.7,0,2.4.3s1.3.6,1.8,1.2c1.4,1.5,2.1,3.8,2.1,6.8s0,1.9-.2,2.8-.4,1.6-.7,2.2-.7,1.3-1.1,1.8c-.4.4-.8.7-1.2,1s-.9.4-1.4.5-1.1,0-1.7,0h-3.6c-.5,0-.9,0-1.1-.3s-.4-.4-.5-.8,0-.8,0-1.3v-12.3c0-.7,0-1.3.4-1.6s.7-.5,1.3-.5h0ZM4.2-37.9v11.4h3.2c.3,0,.5,0,.8-.2s.5-.3.7-.5c.9-1,1.4-2.6,1.4-5s-.2-2.9-.6-3.7-.9-1.3-1.5-1.6-1.3-.3-2.2-.3h-1.8Z"/>
      <g>
        <path class="cls-1" d="M-4.6-35.8c.6,0,1.1-.2,1.5-.6s.6-1,.6-1.8-.2-1.1-.5-1.5c-.3-.4-.8-.6-1.3-.6s-.7,0-.9.2-.4.3-.6.5-.3.5-.4.8-.2.7-.3.9c0,.2-.2.3-.3.4s-.3,0-.6,0-.5,0-.7-.4-.3-.6-.3-1,0-.8.3-1.3.5-.9.9-1.3.8-.7,1.4-1,1.2-.4,1.9-.4,1.1,0,1.6.3.9.5,1.3.9.6.8.8,1.3.3,1,.3,1.6,0,1.4-.4,2-.7,1.1-1.2,1.6c.5.3.9.7,1.2,1.1s.6.9.7,1.4.3,1,.3,1.6,0,1.4-.3,2-.6,1.2-1,1.7-1,.9-1.6,1.2-1.3.4-2,.4-1.4-.2-2-.5-1.1-.7-1.5-1.2-.7-1-.9-1.5-.3-1-.3-1.3,0-.8.3-1.1.5-.4.9-.4.3,0,.5.2.3.3.3.5c.3,1.1.7,1.8,1,2.4s.9.8,1.6.8.8,0,1.1-.3.6-.6.9-1,.3-1,.3-1.6c0-.9-.2-1.6-.6-2.1s-.9-.8-1.6-.8-.3,0-.6,0h-.5c-.3,0-.6,0-.8-.3s-.3-.5-.3-.9,0-.7.3-.9.6-.3,1-.3h.4v.2Z"/>
        <path class="cls-1" d="M4.7-42.4h3.6c.9,0,1.7,0,2.4.3s1.3.6,1.8,1.2c1.4,1.5,2.1,3.8,2.1,6.8s0,1.9-.2,2.8-.4,1.6-.7,2.2-.7,1.3-1.1,1.8c-.4.4-.8.7-1.2,1s-.9.4-1.4.5-1.1,0-1.7,0h-3.6c-.5,0-.9,0-1.1-.3s-.4-.4-.5-.8,0-.8,0-1.3v-12.3c0-.7,0-1.3.4-1.6s.7-.5,1.3-.5h0ZM5.7-39.8v11.4h3.2c.3,0,.5,0,.8-.2s.5-.3.7-.5c.9-1,1.4-2.6,1.4-5s-.2-2.9-.6-3.7-.9-1.3-1.5-1.6-1.3-.3-2.2-.3h-1.8Z"/>
      </g>
      <g>
        <path class="cls-1" d="M94.4-4.5c.6.2,1.1.2,1.5,0s.6-.8.6-1.6-.2-1.2-.5-1.7c-.3-.5-.8-.9-1.3-1.1s-.7-.3-.9-.2-.4.1-.6.3-.3.4-.4.6-.2.6-.3.8c0,.2-.2.2-.3.3s-.3,0-.6-.1-.5-.3-.7-.7-.3-.7-.3-1.1,0-.8.3-1.2.5-.7.9-.9.8-.4,1.4-.4,1.2,0,1.9.4,1.1.5,1.6.9.9.9,1.3,1.4.6,1,.8,1.6.3,1.1.3,1.7,0,1.4-.4,1.8-.7.8-1.2,1.1c.5.5.9,1.1,1.2,1.6s.6,1.1.7,1.7.3,1.1.3,1.7,0,1.4-.3,1.9-.6,1-1,1.3-1,.5-1.6.6-1.3-.1-2-.4-1.4-.8-2-1.3-1.1-1.1-1.5-1.8-.7-1.3-.9-1.9-.3-1.1-.3-1.4,0-.8.3-1,.5-.2.9,0,.3.1.5.4.3.4.3.6c.3,1.2.7,2.1,1,2.8s.9,1.2,1.6,1.4.8.2,1.1.1.6-.4.9-.6.3-.9.3-1.5c0-.9-.2-1.7-.6-2.3s-.9-1.2-1.6-1.4-.3-.1-.6-.2l-.5-.2c-.3-.1-.6-.3-.8-.6s-.3-.6-.3-1,0-.7.3-.8.6,0,1,.1l.4.2v.2Z"/>
        <path class="cls-1" d="M103.7-7.3l3.6,1.5c.9.4,1.7.8,2.4,1.3s1.3,1.1,1.8,1.9c1.4,2.1,2.1,4.6,2.1,7.6s0,1.9-.2,2.7-.4,1.4-.7,1.9-.7,1-1.1,1.4c-.4.2-.8.4-1.2.5s-.9,0-1.4,0-1.1-.3-1.7-.6l-3.6-1.5c-.5-.2-.9-.4-1.1-.7s-.4-.6-.5-1,0-.8,0-1.3V-6c0-.7,0-1.3.4-1.4s.7-.2,1.3,0h0ZM104.7-4.3V7.1l2.1.8,1.1.4c.3.1.5.1.8.1s.5,0,.7-.2c.9-.6,1.4-2,1.4-4.4s-.2-3-.6-3.9-.9-1.7-1.5-2.2-1.3-.8-2.2-1.2l-1.8-.7h0Z"/>
      </g>
      <rect class="cls-3" y="0" width="45" height="50"/>
      <path class="cls-3" d="M9.9,37.8h-.2c0,0,0,0,0-.2V12.5c.1-.2.2-.3.4-.3h25.2v25.2c0,.2-.2.3-.4.3H9.9Z"/>
      <path class="cls-4" d="M145.5,73.1h-.2c0,0,0,0,0-.2v-25.1c.1-.2.2-.3.4-.3h25.2v25.2c0,.2-.2.3-.4.3h-25Z"/>
      <rect class="cls-3" x="-74.9" y="1.1" width="45" height="50"/>
      <path class="cls-3" d="M-65,38.9h-.2c0,0,0,0,0-.2V13.6c.1-.2.2-.3.4-.3h25.2v25.2c0,.2-.2.3-.4.3h-25Z"/>
      <path class="cls-2" d="M-47.4,38.7c-.7,0-1.3-.2-2-.5-1.4-.6-2.7-1.3-3.9-1.9-.9-.5-1.5-1.3-1.5-2.4v-6.6h0v-6.6c0-1,.4-1.6,1.3-2,.8-.3,1.6-.8,2.4-1.1h.1c.3-.2.6-.3.8-.3s.5,0,.8.2c.4.2.8.4,1.2.6.8.4,1.6.8,2.4,1.2,2,1.1,3.5,2.8,4.7,5.3,1.1,2.3,1.5,4.8,1.2,7.3,0,1-.5,2-.8,2.9-.3.7-.9,1.3-1.8,1.7-.9.4-1.9.9-2.9,1.4-.7.4-1.4.6-2.2.6l.2.2ZM-53.3,20.3v13.7c0,.3,0,1,.7,1.3,1.4.7,2.7,1.4,4,1.9.4.2.8.2,1.3.2s.2,0,.2,0c.9,0,1.5-.5,2-1.5.6-1.1.7-2.4.7-3.5,0-1.7-.3-3.1-.7-4.5-.9-2.6-2.1-4.3-4-5.5-.9-.6-1.8-1-2.8-1.5-.4-.2-.8-.4-1.2-.6-.2,0-.3-.1-.3-.1h0ZM-51.3,19.7c.7.3,1.3.6,1.9,1,1.3.6,2.3,1.4,3.1,2.3,3.2,3.8,4.2,8.1,2.9,12.8,1.1-.4,1.7-1.3,2-2.5.5-2.3.4-4.6-.5-7-.8-2.4-2-4-3.6-5.1-1-.7-2.1-1.2-3.2-1.8-.5-.2-.9-.5-1.4-.7h0c-.5.2-1,.5-1.6.8h0s.4.2.4.2Z"/>
      <path class="cls-2" d="M-48.2,35.7c-.5,0-1.1-.2-1.8-.5-.2,0-.4-.2-.6-.3-.4-.2-.7-.4-1.1-.5-.5-.2-.7-.5-.7-1.1v-4.9h0v-5.2c0-.8.4-.9.7-.9s.4,0,.7.2l.4.2c.2.1.5.3.8.4,2,.9,3.4,2.3,4.1,4.5s.8,4.1.2,5.9c0,0,0,.3-.1.4-.5,1.2-1.4,1.8-2.5,1.8h-.1ZM-50.1,33.7c.3.2.6.3.9.4.4.2.7.3,1,.3.5,0,.9-.3,1.1-.9h-.2c-.4-.3-.7-.4-1.1-.6h0c-.5.2-1.1.5-1.6.8h0ZM-50.9,32.6h.1c.4-.2.8-.4,1.1-.5.5-.2.5-.4.5-.7v-3.8c0-.4.3-.8.7-.8s.3,0,.4.1c.2.2.3.5.3.7v4.3c.3.2.6.3.9.4h0c.2-1.7,0-3.4-.8-5.1-.6-1.4-1.7-2.4-3.4-3v8.5h.2Z"/>
      <path class="cls-2" d="M-58.9,33.1c-.6,0-1.1-.1-1.7-.4-1.1-.5-2-1.2-2.8-2.3-1.3-1.7-1.9-3.4-1.9-5.2s.3-1.1,1-1.4c.3-.1.6-.3.9-.4l.6-.3c.3-.2.6-.3.7-.6.1-.3.4-.4.6-.5.3-.2.6-.3.9-.4.3-.2.7-.3,1-.5h0c-.2-.9-.6-1.4-1.3-1.8-.1,0-.3-.1-.4-.1s-.2,0-.3.3v.2c-.2.6-.7,1-1.3,1s-.7-.1-1-.3c-1.1-.6-1.6-2-1.2-3.2.3-1,.9-1.7,1.9-2.1.9-.4,1.8-.9,2.5-1.2.6-.3,1.2-.5,1.9-.5s1.2.1,1.9.4c1.6.8,2.8,2.1,3.8,4v.5c0,.1-.2.3-.3.3h-.2c-.2,0-.5,0-.7-.3-.1-.1-.2-.3-.3-.5,0-.1-.1-.2-.2-.3-.2-.2-.3-.4-.4-.5-.5-.6-.9-1.1-1.5-1.6-.7-.6-1.3-.8-2-.8s-1.1.2-1.6.5h-.1c2.4,1,3.5,2.9,4.1,4.3.8,1.7,1,3.2.5,4.6-.2.5-.5,1-.7,1.3v.3c.9,1.7,1.2,3.2.9,4.6v.3h0c.3,0,.5,0,.6.3.2.2.2.4.1.5,0,.3-.4.4-.6.5l-.4.2c-.4.2-.8.4-1.1.6-.6.3-1.1.5-1.7.5h-.2ZM-63.8,25.1v.3c0,2.1.9,3.8,2.6,5.3.5.4,1.1.8,1.7,1,.3.1.5.2.8.2.6,0,1.1-.3,1.4-.9.2-.6.4-1.2.3-1.9,0-1.2-.5-2.3-1-3.2-.1-.3-.1-.7.1-.9.7-.5,1-1.3.9-2.4,0-1.8-.9-3.5-2.3-5-.6-.6-1.3-1.1-2-1.3-.3,0-.5-.1-.8-.1s-.6,0-.9.2c-.5.3-.8.8-.8,1.4s.2,1.1.6,1.4q.2.1.3.1c.1,0,0,0,0-.2.2-.8.8-1.4,1.7-1.4s.7,0,1.1.3c1.5.7,2.4,2.8,2,4.2-.2.8-.8,1.2-1.6,1.2s-.6,0-.9-.2h-.3v.2c0,.6.4,1.1.9,1.4,1.5.8,2.3,2.7,2,4-.2.8-.9,1.3-1.7,1.3s-.8-.1-1.2-.4c-.8-.5-1.4-1.2-1.7-2.1-.1-.3-.2-.7-.2-1s0-.4-.1-.6c-.1-.5-.4-.9-.8-1.1v.2ZM-62.5,24.4c.6.6.9,1.3,1,2.3,0,.9.5,1.6,1.4,2.1.2.1.3.1.4.1s.2,0,.3-.3c.2-.7-.2-2-1.2-2.5-.8-.5-1.3-1-1.6-1.8h-.3,0Z"/>
      <path class="cls-1" d="M-58.8,33.3c-.4,0-.9,0-1.3-.3-.8-.3-1.5-.8-2.1-1.3-1.9-1.7-3-3.9-3-6.3s0-.5.1-.7c.1-.4.4-.7.8-.9.2,0,.4-.1.5-.1s.4,0,.6.2c.8.4,1.3,1.1,1.6,2,0,.2,0,.4.1.7,0,.3,0,.5.2.8.2.6.5,1,1.1,1.3.2,0,.3.2.5.2s.2,0,.3-.3c.2-.7-.3-1.9-1.3-2.4-.9-.5-1.5-1.4-1.6-2.4,0-.2,0-.8.4-1.3.3-.3.7-.5,1.1-.5s.1,0,.2,0c.2,0,.4,0,.6.2h.4q.2,0,.3-.2c.2-.7-.4-2-1.3-2.5-.2,0-.3-.1-.4-.1s-.2,0-.3.3c-.2.9-.9,1.3-1.5,1.3s-.8-.2-1.2-.5c-.8-.6-1.2-1.6-1.1-2.6,0-1,.6-2,1.5-2.5.5-.3,1-.4,1.6-.4s.8,0,1.2.2c1,.3,1.8.9,2.6,1.7,1.7,1.7,2.6,3.7,2.7,5.9,0,1.3-.3,2.3-1,3.1.5,1,1,2.1,1,3.4s-.1,1.8-.5,2.5c-.4,1.1-1.5,1.8-2.7,1.8v-.3Z"/>
      <path class="cls-1" d="M-63.8,25.1v.3c0,2.1.9,3.8,2.6,5.3.5.4,1.1.8,1.7,1,.3.1.5.2.8.2.6,0,1.1-.3,1.4-.9.2-.6.4-1.2.3-1.9,0-1.2-.5-2.3-1-3.2-.1-.3-.1-.7.1-.9.7-.5,1-1.3.9-2.4,0-1.8-.9-3.5-2.3-5-.6-.6-1.3-1.1-2-1.3-.3,0-.5-.1-.8-.1s-.6,0-.9.2c-.5.3-.8.8-.8,1.4s.2,1.1.6,1.4q.2.1.3.1c.1,0,0,0,0-.2.2-.8.8-1.4,1.7-1.4s.7,0,1.1.3c1.5.7,2.4,2.8,2,4.2-.2.8-.8,1.2-1.6,1.2s-.6,0-.9-.2h-.3v.2c0,.6.4,1.1.9,1.4,1.5.8,2.3,2.7,2,4-.2.8-.9,1.3-1.7,1.3s-.8-.1-1.2-.4c-.8-.5-1.4-1.2-1.7-2.1-.1-.3-.2-.7-.2-1s0-.4-.1-.6c-.1-.5-.4-.9-.8-1.1v.2Z"/>
      <path class="cls-1" d="M-47.3,38.8c-.7,0-1.3,0-1.9-.4-1.3-.6-2.6-1.2-4.1-1.9-.9-.5-1.5-1.4-1.5-2.6v-13.4c0-1.6,1.3-1.7,1.4-1.7.4,0,.7.1,1,.3.4.2.8.4,1.2.6,1,.5,2,1,2.9,1.6,2.8,1.8,3.9,4.4,4.6,6.2.5,1.5.8,3.1.8,4.9s-.2,2.7-.9,4.1c-.3.5-1.1,2.1-3.2,2.3-.1,0-.2,0-.3,0ZM-50.9,33.2c.4.2.7.3,1,.5.2,0,.4.2.5.3.4.2.8.3,1.2.3h0c.2,0,.7,0,1.2-1v-.2c.5-1.5.4-3.2-.2-5.1-.6-1.8-1.6-2.9-3.3-3.6-.2,0-.3-.2-.5-.2v9h0Z"/>
      <g>
        <path class="cls-1" d="M97.7,32c.5.2,1,.2,1.4,0s.6-.5.6-1.1-.2-.9-.5-1.3-.7-.8-1.3-1-.6-.2-.9-.2-.4,0-.5.2-.3.3-.4.5-.2.4-.3.6c0,0-.2.2-.3.2s-.3,0-.5-.1-.4-.3-.6-.5-.3-.6-.3-.9,0-.6.3-.8.5-.5.8-.6.8-.2,1.3-.2,1.1.2,1.8.4,1.1.5,1.5.9.9.7,1.2,1.2.6.9.8,1.3.3.9.3,1.3-.1,1-.4,1.3-.6.6-1.1.8c.5.4.8.9,1.2,1.3s.5.9.7,1.3.2.9.2,1.3-.1,1-.3,1.4-.5.7-.9.9-.9.3-1.5.3-1.2-.2-1.9-.4-1.3-.7-1.9-1.1-1-1-1.4-1.5-.6-1-.8-1.5-.3-.8-.3-1.1.1-.6.3-.7.5-.1.8,0,.3.2.5.3.3.3.3.5c.3.9.6,1.7,1,2.2s.8.9,1.5,1.2.7.2,1,.2.6-.2.8-.5.3-.6.3-1.1c0-.7-.2-1.3-.6-1.8s-.9-.9-1.6-1.2-.3-.1-.5-.2-.4-.1-.5-.2c-.3-.1-.6-.3-.7-.5s-.3-.5-.3-.8.1-.5.3-.6.5,0,.9.1h.4Z"/>
        <path class="cls-1" d="M106.4,30.5l3.4,1.4c.9.4,1.6.7,2.3,1.2s1.2,1,1.7,1.6c1.3,1.7,2,3.7,2,6s0,1.4-.2,2-.3,1.1-.6,1.5-.6.7-1.1.9c-.3.2-.7.3-1.1.3s-.8,0-1.3-.1-1-.3-1.6-.5l-3.4-1.4c-.5-.2-.8-.4-1.1-.6s-.4-.5-.5-.8-.1-.6-.1-1.1v-9.4c0-.6.1-.9.4-1.1s.7-.1,1.2.1ZM107.4,32.9v8.7l2,.8c.4.2.8.3,1,.4s.5.1.8.1.5,0,.7-.1c.9-.4,1.3-1.5,1.3-3.3s-.2-2.3-.6-3.1-.9-1.4-1.4-1.8-1.2-.8-2-1.1l-1.7-.7Z"/>
      </g>
      <g>
        <path class="cls-1" d="M145.4,17.8c.5.2,1,.2,1.4,0s.6-.5.6-1.1-.2-.9-.5-1.3-.7-.8-1.3-1-.6-.2-.9-.2-.4,0-.5.2-.3.3-.4.5-.2.4-.3.6c0,0-.2.2-.3.2s-.3,0-.5-.1-.4-.3-.6-.5-.3-.6-.3-.9,0-.6.3-.8.5-.5.8-.6.8-.2,1.3-.2,1.1.2,1.8.4,1.1.5,1.5.9.9.7,1.2,1.2.6.9.8,1.3.3.9.3,1.3-.1,1-.4,1.3-.6.6-1.1.8c.5.4.8.9,1.2,1.3s.5.9.7,1.3.2.9.2,1.3-.1,1-.3,1.4-.5.7-.9.9-.9.3-1.5.3-1.2-.2-1.9-.4-1.3-.7-1.9-1.1-1-1-1.4-1.5-.6-1-.8-1.5-.3-.8-.3-1.1.1-.6.3-.7.5-.1.8,0,.3.2.5.3.3.3.3.5c.3.9.6,1.7,1,2.2s.8.9,1.5,1.2.7.2,1,.2.6-.2.8-.5.3-.6.3-1.1c0-.7-.2-1.3-.6-1.8s-.9-.9-1.6-1.2-.3-.1-.5-.2-.4-.1-.5-.2c-.3-.1-.6-.3-.7-.5s-.3-.5-.3-.8.1-.5.3-.6.5,0,.9.1h.4Z"/>
        <path class="cls-1" d="M154.2,16.3l3.4,1.4c.9.4,1.6.7,2.3,1.2s1.2,1,1.7,1.6c1.3,1.7,2,3.7,2,6s0,1.4-.2,2-.3,1.1-.6,1.5-.6.7-1.1.9c-.3.2-.7.3-1.1.3s-.8,0-1.3-.1-1-.3-1.6-.5l-3.4-1.4c-.5-.2-.8-.4-1.1-.6s-.4-.5-.5-.8-.1-.6-.1-1.1v-9.4c0-.6.1-.9.4-1.1s.7-.1,1.2.1ZM155.2,18.7v8.7l2,.8c.4.2.8.3,1,.4s.5.1.8.1.5,0,.7-.1c.9-.4,1.3-1.5,1.3-3.3s-.2-2.3-.6-3.1-.9-1.4-1.4-1.8-1.2-.8-2-1.1l-1.7-.7Z"/>
      </g>
      <g>
        <path class="cls-5" d="M101.1,27.2c.5.2,1,.2,1.4,0s.6-.5.6-1.1-.2-.9-.5-1.3-.7-.8-1.3-1-.6-.2-.9-.2-.4,0-.5.2-.3.3-.4.5-.2.4-.3.6c0,0-.2.2-.3.2s-.3,0-.5-.1-.4-.3-.6-.5-.3-.6-.3-.9,0-.6.3-.8.5-.5.8-.6.8-.2,1.3-.2,1.1.2,1.8.4,1.1.5,1.5.9.9.7,1.2,1.2.6.9.8,1.3.3.9.3,1.3-.1,1-.4,1.3-.6.6-1.1.8c.5.4.8.9,1.2,1.3s.5.9.7,1.3.2.9.2,1.3-.1,1-.3,1.4-.5.7-.9.9-.9.3-1.5.3-1.2-.2-1.9-.4-1.3-.7-1.9-1.1-1-1-1.4-1.5-.6-1-.8-1.5-.3-.8-.3-1.1.1-.6.3-.7.5-.1.8,0,.3.2.5.3.3.3.3.5c.3.9.6,1.7,1,2.2s.8.9,1.5,1.2.7.2,1,.2.6-.2.8-.5.3-.6.3-1.1c0-.7-.2-1.3-.6-1.8s-.9-.9-1.6-1.2-.3-.1-.5-.2-.4-.1-.5-.2c-.3-.1-.6-.3-.7-.5s-.3-.5-.3-.8.1-.5.3-.6.5,0,.9.1h.4Z"/>
        <path class="cls-5" d="M109.9,25.6l3.4,1.4c.9.4,1.6.7,2.3,1.2s1.2,1,1.7,1.6c1.3,1.7,2,3.7,2,6s0,1.4-.2,2-.3,1.1-.6,1.5-.6.7-1.1.9c-.3.2-.7.3-1.1.3s-.8,0-1.3-.1-1-.3-1.6-.5l-3.4-1.4c-.5-.2-.8-.4-1.1-.6s-.4-.5-.5-.8-.1-.6-.1-1.1v-9.4c0-.6.1-.9.4-1.1s.7-.1,1.2.1ZM110.9,28.1v8.7l2,.8c.4.2.8.3,1,.4s.5.1.8.1.5,0,.7-.1c.9-.4,1.3-1.5,1.3-3.3s-.2-2.3-.6-3.1-.9-1.4-1.4-1.8-1.2-.8-2-1.1l-1.7-.7Z"/>
      </g>
      <image width="512" height="316" transform="translate(9.7 17) scale(0)" xlink:href="Icon-3D-1.png"/>
      <g>
        <path class="cls-1" d="M13.9,23.3c.5,0,1-.2,1.4-.6s.6-.9.6-1.6-.2-1-.5-1.4-.7-.6-1.3-.6-.7,0-.9.2-.4.3-.6.5-.3.5-.4.8-.2.6-.3.9c0,.1-.2.3-.3.3s-.3.1-.5.1-.5-.1-.7-.3-.3-.5-.3-.9,0-.8.3-1.2.5-.8.8-1.2.8-.7,1.3-.9,1.1-.3,1.8-.3,1.1,0,1.6.3.9.5,1.2.8.6.8.8,1.2.3,1,.3,1.5-.1,1.3-.4,1.8-.6,1-1.1,1.5c.5.3.9.6,1.2,1s.6.8.7,1.3.2,1,.2,1.5-.1,1.3-.3,1.9-.5,1.1-1,1.6-.9.8-1.5,1.1-1.2.4-1.9.4-1.3-.2-1.9-.5-1-.7-1.4-1.1-.6-.9-.8-1.4-.3-.9-.3-1.2.1-.7.3-1,.5-.4.8-.4.3,0,.5.2.3.3.3.4c.3,1,.6,1.7,1,2.2s.8.7,1.5.7.7-.1,1.1-.3.6-.5.8-1,.3-.9.3-1.5c0-.8-.2-1.5-.6-1.9s-.9-.7-1.6-.7-.3,0-.6,0-.4,0-.5,0c-.3,0-.6,0-.8-.3s-.3-.5-.3-.8.1-.6.3-.8.5-.3,1-.3h.4Z"/>
        <path class="cls-1" d="M22.8,17.2h3.4c.9,0,1.7,0,2.3.3s1.2.6,1.7,1.1c1.4,1.4,2,3.5,2,6.3s0,1.8-.2,2.5-.3,1.5-.6,2.1-.6,1.2-1.1,1.7c-.3.4-.7.7-1.1.9s-.9.4-1.3.5-1,.1-1.6.1h-3.4c-.5,0-.8,0-1.1-.3s-.4-.4-.5-.7-.1-.7-.1-1.2v-11.4c0-.7.1-1.2.4-1.5s.7-.5,1.2-.5ZM23.8,19.6v10.5h2c.4,0,.8,0,1,0s.5,0,.8-.2.5-.3.7-.5c.9-.9,1.3-2.4,1.3-4.6s-.2-2.7-.6-3.4-.9-1.2-1.4-1.5-1.3-.3-2.1-.3h-1.7Z"/>
      </g>
    </g>
  </g>
</svg>