<?xml version="1.0" encoding="UTF-8"?>
<svg id="Layer_1" xmlns="http://www.w3.org/2000/svg" version="1.1" viewBox="0 0 45 50">
  <!-- Generator: Adobe Illustrator 29.1.0, SVG Export Plug-In . SVG Version: 2.1.0 Build 142)  -->
  <defs>
    <style>
      .st0 {
        fill: #00aeef;
      }

      .st1 {
        fill: #fff;
      }

      .st2 {
        fill: none;
      }
    </style>
  </defs>
  <rect class="st2" width="45" height="50"/>
  <polygon class="st2" points="10 12.5 35 12.5 34.9 37.5 9.9 37.5 10 12.5"/>
  <g>
    <path class="st0" d="M34.8,31.3v-.2c-3.9-3.9-6.9-6.8-9.7-9.6h-.2c-.3-.3-.7-.3-1-.2-.3.1-.6.4-.8.8h0c0,.1,0,14.2,0,14.2v.2s0,.1,0,.1c.2.4.5.6.7.7h.2c0,0,.6,0,.6,0h.1c.4-.2.7-.5.9-.8,0,0,.1-.1.2-.2.6-.6,1.2-1.2,1.8-1.8.4-.5.9-.9,1.3-1.4h4.8s.2,0,.2,0c.4-.1.8-.4,1-.8.2-.4.2-.8,0-1.2ZM27.8,31c-.7.6-1.4,1.3-2,2-.1.1-.2.3-.4.4v-8.2l5.5,5.6h-3l-.2.2Z"/>
    <path class="st1" d="M26.7,14.9c.2,0,.5,0,.7,0,.5,0,.7,0,.9.2.2.2.2.4.2.8,0,.3,0,.6,0,1,.1.6.6.9,1.2.9s0,0,0,0c.6,0,1.1-.5,1.2-1.1.2-1.1-.1-2.3-.7-3.1-.5-.7-1.2-1-2-1.1-.3,0-.6,0-.9,0-.2,0-.4,0-.6,0h-.2s-.2,0-.2,0c-.5.2-.9.7-.8,1.3,0,.6.5,1,1,1Z"/>
    <path class="st1" d="M14.1,31.1c-.2,0-.4,0-.7,0-.4,0-.6,0-.8-.2-.2-.2-.2-.4-.2-.9,0-.2,0-.5,0-.7,0-.6-.5-1-1-1-.6,0-1.1.3-1.3.8v1.7s.2,1,.2,1c.5,1.2,1.8,1.9,3.3,1.9s.4,0,.7,0c.7,0,1.1-.6,1.1-1.2,0-.6-.5-1.1-1.2-1.2Z"/>
    <path class="st1" d="M10.1,17.1c.2.5.7.8,1.2.8s.1,0,.2,0c.5,0,.9-.5,1-1h0c0-.2,0-.5,0-.7,0-.6,0-.8.3-1,.2-.2.4-.2.8-.2.2,0,.5,0,.8,0,.5,0,.9-.5,1-1,0-.6-.3-1.1-.8-1.3h-1.7s-.8.2-.8.2c-1,.4-1.9,1.5-2,2.5,0,.3,0,.6,0,.9,0,.2,0,.4,0,.6v.2s0,.2,0,.2Z"/>
    <path class="st1" d="M17.6,14.8h.1c0,0,5.6,0,5.6,0h.2c.4-.3.7-.7.7-1.2,0-.5-.3-.9-.7-1.2h-.1c0,0-5.5,0-5.5,0h-.1c-.5.3-.8.7-.8,1.2,0,.5.3.9.8,1.1Z"/>
    <path class="st1" d="M11.2,19.3c-.5,0-.9.3-1.2.8h0v5.8c.3.4.7.7,1.2.7h0c.5,0,.9-.3,1.1-.7v-.2c0,0,0-5.6,0-5.6h0c-.2-.6-.6-.9-1.1-.9Z"/>
    <path class="st1" d="M30.7,19.7h0c-.3-.3-.8-.4-1.2-.3-.5.2-.8.6-.9,1,0,.6,0,2.6,0,3.2,0,.6.6,1.1,1.2,1.1s1.1-.5,1.2-1.1c0-.6,0-2.5,0-3.1,0-.1,0-.5-.4-.8Z"/>
    <path class="st1" d="M21.1,31.1h0c-.6,0-2.5,0-3.1,0-.6,0-1.1.6-1.1,1.2s.5,1.1,1.1,1.2c.3,0,.9,0,1.6,0s1.3,0,1.6,0c.5,0,.9-.4,1-.9.1-.4,0-.9-.3-1.2-.3-.3-.7-.3-.8-.4ZM21,31.8h0,0s0,0,0,0Z"/>
  </g>
</svg>