<?xml version="1.0" encoding="UTF-8"?>
<svg xmlns="http://www.w3.org/2000/svg" version="1.1" viewBox="0 0 45 50">
  <defs>
    <style>
      .cls-1 {
        fill: #00aeef;
      }

      .cls-2 {
        fill: #fff;
      }

      .cls-3 {
        fill: none;
      }
    </style>
  </defs>
  <!-- Generator: Adobe Illustrator 28.6.0, SVG Export Plug-In . SVG Version: 1.2.0 Build 709)  -->
  <g>
    <g id="Layer_1">
      <path class="cls-2" d="M21.8,33.7c-.3,0-.4-.2-.7-.5l-.7-.7c-.4-.4-.7-.7-1.1-1.1s-.5-.7-.5-1.1v-8.9c-.3-.1-.6-.3-.9-.4h-.3c-.4-.3-.7-.7-.7-1.1h-.4c-.9-.3-1.6-1.1-1.6-2.1v-2.6h-3.6c-.7,0-1.3-.5-1.3-1.2s.5-1.2,1.2-1.3h22.7c.6.1,1.1.7,1,1.3,0,.6-.6,1.1-1.3,1.1h-4.6v2.4c0,1.3-.7,2.2-2,2.4,0,.5-.3.8-.7,1l-.4.2c-.2.1-.5.2-.7.4v8.8c0,.5-.2.9-.5,1.3-.4.4-.7.7-1.1,1.1l-.6.6c-.3.3-.6.4-1,.4h-.2ZM26.7,17.3v-2.3h-9.1v2.3h9.1Z"/>
      <path class="cls-2" d="M22.9,37.5h-1.7c-.4,0-.8,0-1.1-.4l-1.4-1.4c-.6-.6-1.3-1.3-1.9-1.9-.1,0-.2,0-.4,0h-5c-.5,0-.9-.2-1.1-.6-.2-.3-.3-.7-.1-1.1.2-.5.6-.8,1.2-.8h5.6c.5,0,.8.2,1.1.5.5.5,1,1,1.5,1.5.6.6,1.2,1.2,1.7,1.8.1,0,.2,0,.4.2h.2c.4,0,.7,0,1-.5.6-.7,1.3-1.3,1.9-2l1-1c.3-.3.7-.5,1.1-.5h6.8c.6,0,1.1.3,1.2.9.2.5,0,1.1-.5,1.4-.2,0-2.7.2-3,.2h-3.9c-.2,0-.3,0-.4.2-.6.6-1.2,1.2-1.8,1.8l-1.5,1.5c-.3.3,0,.3-.5.3s-.4,0-.4,0h0Z"/>
      <rect class="cls-3" y="0" width="45" height="50"/>
      <polygon class="cls-3" points="10 12.5 35 12.5 34.9 37.5 9.9 37.5 10 12.5"/>
      <rect class="cls-1" x="10.9" y="25.6" width="7.1" height="2.4" rx="1.2" ry="1.2" transform="translate(23.2 -2.4) rotate(45)"/>
      <rect class="cls-1" x="26" y="25.6" width="7.1" height="2.4" rx="1.2" ry="1.2" transform="translate(-10.3 28.8) rotate(-45)"/>
    </g>
  </g>
</svg>