<?xml version="1.0" encoding="UTF-8"?>
<svg xmlns="http://www.w3.org/2000/svg" version="1.1" viewBox="0 0 45 50">
  <defs>
    <style>
      .cls-1 {
        fill: #00aeef;
      }

      .cls-2 {
        fill: #fff;
      }

      .cls-3 {
        fill: none;
      }
    </style>
  </defs>
  <!-- Generator: Adobe Illustrator 28.6.0, SVG Export Plug-In . SVG Version: 1.2.0 Build 709)  -->
  <g>
    <g id="Layer_1">
      <rect class="cls-3" y="0" width="45" height="50"/>
      <polygon class="cls-3" points="10 12.5 35 12.5 34.9 37.5 9.9 37.5 10 12.5"/>
      <path class="cls-2" d="M-41.4,27.1c0-.6,0-1.2,0-1.8,0-1.6,1.1-2.8,2.5-3.2.4-.1.7-.3.9-.8.3-.8.6-1.5.9-2.3.6-1.4,1.8-2.2,3.3-2.2,2.3,0,4.7,0,7,0,1.1,0,2.1.5,2.8,1.4.7.9,1.5,1.8,2.2,2.7.5.7,1.1,1,2,1.2,1,.2,1.9.5,2.6,1.3.6.7.9,1.4.9,2.3,0,1.2,0,2.3,0,3.5,0,.5-.3.8-.8.9-.4,0-.8,0-1.2,0-.3,0-.5.1-.6.4-.4,1.1-1.1,1.8-2.1,2.3-1.8.8-4.3-.3-4.8-2.3,0-.3-.2-.4-.5-.4-1.6,0-3.3,0-4.9,0-.3,0-.4,0-.5.4-.4,1.4-1.8,2.5-3.3,2.5-1.5,0-3-.9-3.5-2.3q-.3-.7-1-.7c-.3,0-.6,0-1,0-.5,0-.8-.3-.8-.8,0-.7,0-1.4,0-2.2ZM-33.6,21.8c.9,0,1.7,0,2.6,0,.3,0,.4,0,.4-.4,0-.9,0-1.7,0-2.6,0-.3,0-.4-.4-.4-1,0-2,0-3,0-.8,0-1.4.5-1.8,1.1-.3.6-.5,1.2-.8,1.8-.1.3,0,.4.3.4.9,0,1.7,0,2.6,0ZM-23.1,21.8c-.7-.9-1.4-1.8-2.1-2.6-.4-.5-1-.8-1.6-.8-.6,0-1.3,0-1.9,0-.3,0-.4,0-.4.4,0,.8,0,1.7,0,2.5,0,.4.1.5.5.5,1.7,0,3.3,0,5,0,.1,0,.3,0,.5,0ZM-35.3,27.2c-1.2,0-2.2,1-2.2,2.2,0,1.2,1,2.2,2.2,2.2,1.2,0,2.2-.9,2.2-2.2,0-1.2-.9-2.2-2.2-2.2ZM-22.5,31.6c1.2,0,2.2-.9,2.2-2.2,0-1.2-1-2.2-2.2-2.2-1.2,0-2.2.9-2.2,2.1,0,1.2.9,2.2,2.2,2.2Z"/>
      <path class="cls-1" d="M-29.5,23.3c-2.5,0-4.9,0-7.4,0-.6,0-1.2.2-1.7.3-.9.3-1.3.8-1.3,1.8,0,.8,0,1.6,0,2.5,0,.7,0,.7.8.7.4,0,.4-.4.5-.6.5-1.4,2-2.4,3.5-2.3,1.6,0,3,1.1,3.4,2.6,0,.3.2.4.5.4,1.6,0,3.3,0,4.9,0,.3,0,.4-.1.5-.4.4-1.2,1.2-2,2.4-2.4,2-.6,3.8.4,4.5,2.3.2.4.7.6,1,.4,0,0,.2-.2.2-.3,0-1,0-1.9,0-2.9,0-.7-.5-1.3-1.2-1.6-.9-.3-1.9-.6-2.9-.6-2.5,0-5,0-7.5,0Z"/>
      <path class="cls-2" d="M22.5,14.3c1.8,0,3.6.2,5.4.8,1.6.5,2.7,1.8,3.3,3.6.2.5.4.8.9.7.1,0,.3,0,.4,0,.7,0,1,.8.7,1.5-.2.4-.1.6.2.7,1,.5,1.3,1.5,1.4,2.6.1,1.4.3,2.9.2,4.3,0,1.3-.3,2.6-.4,4,0,.2,0,.4-.2.5-.6.7-.9,1.9-2.1,1.6-.7-.1-1.4,0-2.1,0-.5,0-.8-.2-1-.7,0-.1-.2-.3-.3-.3-3.1-.8-6.3-.9-9.5-.6-1.1.1-2.3.4-3.4.6-.1,0-.2.2-.3.3-.2.4-.5.7-.9.7-.9,0-1.8,0-2.7,0-.2,0-.4,0-.5-.2-.5-.7-1.1-1.3-1.3-2.3-.5-2.6-.5-5.3-.2-7.9.1-1.1.4-2.1,1.4-2.6.3-.2.3-.4.2-.8-.3-.7,0-1.5.7-1.4.9.1,1.3-.4,1.6-1.3.8-2,2.2-2.9,3.9-3.3,1.5-.3,3.1-.5,4.6-.7,0,0,0,0,0,.1ZM22.4,20.8c2.2,0,4.4.2,6.6.3,1.1,0,1.2-.2.7-1.4-.4-1.1-.9-2.1-2-2.5-.6-.2-1.3-.4-1.9-.6-2.6-.5-5.2-.4-7.8.2-1.2.3-2.1,1-2.7,2.3,0,.2-.2.5-.3.7-.4.9-.2,1.2.6,1.2,2.2,0,4.5-.2,6.7-.3Z"/>
      <path class="cls-1" d="M22.4,30.6s0,0,0,0c1.4,0,2.8,0,4.1,0,.3,0,.7-.1,1-.2.3-.1.7-.4.6-.9,0-.5-.3-.8-.6-.9-1-.3-2-.6-3.1-.8-2.1-.5-4.2,0-6.3.4-.4,0-.8.3-1.2.6-.6.4-.6,1,0,1.4.4.3.9.4,1.3.4,1.4,0,2.8,0,4.1,0Z"/>
      <path class="cls-1" d="M31.5,25.5c.3,0,.9-.1,1.4-.3.4-.1.5-.8.4-1.4-.1-.5-.5-.4-.7-.4-.4,0-.9.1-1.3.3-.6.2-1.2.5-1.8.8-.1,0-.2.3-.3.5.1,0,.3.2.4.3.6,0,1.1.1,1.9.2Z"/>
      <path class="cls-1" d="M13.4,25.5c.7,0,1.3-.2,1.9-.2.1,0,.2-.2.4-.2,0-.2-.1-.4-.3-.4-.3-.2-.6-.4-.9-.5-.8-.3-1.6-.7-2.5-.6-.2,0-.4.2-.5.3-.2.5,0,1.3.5,1.5.5.2,1,.2,1.3.3Z"/>
    </g>
  </g>
</svg>