<?xml version="1.0" encoding="UTF-8"?>
<svg xmlns="http://www.w3.org/2000/svg" version="1.1" viewBox="0 0 45 50">
  <defs>
    <style>
      .cls-1 {
        fill: #00aeef;
      }

      .cls-2 {
        fill: #fff;
      }

      .cls-3 {
        fill: none;
      }
    </style>
  </defs>
  <!-- Generator: Adobe Illustrator 28.6.0, SVG Export Plug-In . SVG Version: 1.2.0 Build 709)  -->
  <g>
    <g id="Layer_1">
      <rect class="cls-3" y="0" width="45" height="50"/>
      <rect class="cls-3" x="10" y="12.5" width="25" height="25"/>
      <path class="cls-1" d="M32,33.4c0,.5-.2.8-.5,1-.4.2-.7,0-1,0-.7-.7-1.5-1.4-2.1-2.1-.3-.4-.3-.9,0-1.3.3-.3.9-.4,1.3,0,.7.7,1.5,1.4,2.2,2.2.1,0,0,0,0,.2h0c0,0,.1,0,.1,0Z"/>
      <path class="cls-1" d="M31.5,26.8s0,.1.2.1c.9.3,1.7.6,2.6.9.5.2.8.7.6,1.2s-.7.7-1.3.5c-.9-.3-1.7-.6-2.6-.9-.5-.2-.7-.6-.6-1.1,0-.4.5-.8,1-.8h.1Z"/>
      <path class="cls-1" d="M25.6,33c.3,0,.5,0,.7.5.3.9.7,1.8,1,2.8.2.5,0,1-.6,1.2-.5.2-1,0-1.2-.5-.4-.9-.7-1.9-1-2.8-.2-.6.3-1.2,1-1.2h.1Z"/>
      <path class="cls-1" d="M14.1,15.5c.1,0,.4.2.6.3.7.6,1.3,1.3,2,2,.4.4.4,1,0,1.4s-1,.4-1.4,0c-.7-.7-1.3-1.3-2-2-.3-.3-.4-.7-.2-1.1s.5-.6,1-.6h0Z"/>
      <path class="cls-1" d="M14.6,22.1c0,.6-.6,1.1-1.2.9-.9-.3-1.8-.6-2.8-1-.5-.2-.7-.7-.6-1.2.2-.5.7-.7,1.2-.6.9.3,1.8.6,2.7,1,.4.2.7.4.7.8h0Z"/>
      <path class="cls-1" d="M19.5,17.1c-.3,0-.6-.2-.7-.6-.3-.9-.7-1.9-1-2.8-.2-.5,0-1,.6-1.2.5-.2,1,0,1.2.5.4.9.7,1.9,1,2.8.2.6-.3,1.3-1,1.3h-.1Z"/>
      <path class="cls-2" d="M34.4,17.6l-4.6-4.7c-.6-.6-1.5-.6-2.1,0L10.4,30.1c-.6.6-.6,1.5,0,2.1l4.8,4.8c.6.6,1.5.6,2.1,0l17.2-17.2c.6-.6.6-1.5,0-2.1h0ZM16.3,34.3l-3.1-3.1,15.5-15.5,3.1,3.1-15.5,15.5Z"/>
      <circle class="cls-1" cx="22.5" cy="25" r="1.7"/>
      <circle class="cls-1" cx="17.7" cy="29.8" r="1.8"/>
      <circle class="cls-1" cx="27.3" cy="20" r="1.8"/>
    </g>
  </g>
</svg>