<svg xmlns="http://www.w3.org/2000/svg" viewBox="0 0 64 64" role="img" aria-labelledby="title">
<title>Capral</title>
<defs>
<linearGradient id="capralGradient" x1="0%" x2="100%" y1="0%" y2="100%">
<stop offset="0%" stop-color="#1f5ca8"/>
<stop offset="100%" stop-color="#0e335f"/>
</linearGradient>
</defs>
<rect width="64" height="64" rx="10" fill="url(#capralGradient)"/>
<path fill="#ffffff" d="M45.5 25.2c-1.7-3.3-4.6-5.8-8-7-3.4-1.2-7.2-1-10.5.5-6.7 3.1-9.6 11.1-6.5 17.8 1.5 3.3 4.2 5.9 7.5 7.3 3.4 1.5 7.2 1.5 10.6 0 .9-.4 1.3-1.5.9-2.4-.4-.9-1.5-1.3-2.4-.9-2.5 1.1-5.2 1.1-7.7 0-2.5-1.1-4.5-3.1-5.6-5.6-2.2-4.9.1-10.7 5-12.8 2.4-1.1 5.2-1.1 7.6-.2 2.5.9 4.5 2.8 5.6 5.2.4.9 1.4 1.3 2.3.9.9-.3 1.3-1.4.9-2.3Z"/>
<path fill="#b7d5ff" d="M36.8 16.6c0 2.4-2 4.4-4.4 4.4s-4.4-2-4.4-4.4 2-4.4 4.4-4.4 4.4 2 4.4 4.4Z"/>
</svg>
