<?xml version="1.0" encoding="UTF-8"?>
<svg xmlns="http://www.w3.org/2000/svg" version="1.1" viewBox="0 0 45 50">
  <defs>
    <style>
      .cls-1 {
        fill: #00aeef;
      }

      .cls-2 {
        fill: #fff;
      }

      .cls-3 {
        fill: none;
      }
    </style>
  </defs>
  <!-- Generator: Adobe Illustrator 28.6.0, SVG Export Plug-In . SVG Version: 1.2.0 Build 709)  -->
  <g>
    <g id="Layer_1">
      <path class="cls-2" d="M-25.6,33.6c-.3,0-.7-.1-1-.4l-.7-.7c-.4-.4-.7-.7-1.1-1.1-.3-.3-.5-.7-.5-1.1v-8.7c0-.1,0-.1,0-.2-.3-.1-.6-.3-.9-.4h-.3c-.4-.3-.7-.7-.7-1.1-.1,0-.3,0-.4,0-.9-.3-1.6-1.1-1.6-2.1,0-.7,0-1.3,0-2v-.6s-2,0-2,0c-.7,0-1.3-.5-1.3-1.2,0-.7.5-1.2,1.2-1.3,0,0,.1,0,.2,0h18.5s0,0,0,0h0c.1,0,.2,0,.3,0,.6.1,1.1.7,1,1.3,0,.6-.6,1.1-1.3,1.1h-2.5v2.4c0,1.3-.7,2.2-2,2.4,0,.5-.3.8-.7,1l-.4.2c-.2.1-.5.2-.7.4,0,0,0,0,0,.2v3.6c0,1.7,0,3.3,0,5,0,.5-.2.9-.5,1.3-.4.4-.7.7-1.1,1.1l-.6.6c-.3.3-.6.4-1,.4ZM-26.3,29.5c0,.2,0,.3,0,.4.1.2.3.4.6.6,0,0,0,0,.1.1l.7-.7c0-.2,0-.5,0-.8l-1.4.3h0ZM-26.2,26.9l1.4-.3v-1.3l-1.4.3v1.3ZM-26.2,23l1.4-.3v-.7h-1.4v1ZM-21,17.3v-2.3h-9.1v2.3h9.1Z"/>
      <path class="cls-2" d="M-25,37.5c-.3,0-.5,0-.8,0s-.9,0-.9,0c-.4,0-.8-.1-1.1-.4l-1.4-1.4c-.6-.6-1.3-1.3-1.9-1.9-.1-.1-.2-.1-.4-.1h-3.5c-.5,0-.9-.2-1.1-.6-.2-.3-.3-.7-.1-1.1.2-.5.6-.8,1.2-.8,0,0,3.6,0,4.1,0,.5,0,.8.2,1.1.5.5.5,1,1,1.5,1.5.6.6,1.2,1.2,1.7,1.8.1.1.2.1.4.2,0,0,.1,0,.2,0,.4,0,.7-.1,1-.5.6-.7,1.3-1.3,1.9-2,.3-.3.7-.7,1-1,.3-.3.7-.5,1.1-.5h4.6c.6,0,1.1.3,1.2.9.2.5,0,1.1-.5,1.4-.2.1-.5.2-.8.2h-2s-1.9,0-1.9,0c-.2,0-.3,0-.4.2-.6.6-1.2,1.2-1.8,1.8-.5.5-1,1-1.5,1.5-.3.3-.7.5-1.1.5s0,0,0,0Z"/>
      <path class="cls-1" d="M-19.9,25.4c-.6,0-1.1-.4-1.2-.9-.2-.5,0-1.1.5-1.4.4-.2.8-.4,1.2-.6.1,0,.3,0,.4,0,.4,0,.8.2,1.1.6.3.6.2,1.3-.3,1.6-.3.2-.7.4-1.1.6l-.4.2s-.2,0-.2,0,0,0,0,0Z"/>
      <path class="cls-1" d="M-32.3,25.4s-.1,0-.1,0c0,0-.2,0-.3-.1-.3-.2-.7-.3-1-.5-.6-.3-.9-1-.6-1.7.2-.4.6-.7,1.1-.7s.4,0,.6.1c.4.2.7.3,1,.5.5.3.7.9.6,1.4s-.7.9-1.3.9,0,0,0,0Z"/>
      <path class="cls-1" d="M-32.4,29.6c-.7,0-1.2-.6-1.2-1.3,0-.7.5-1.2,1.2-1.2.2,0,.4,0,.6,0s.4,0,.6,0c.7,0,1.2.6,1.2,1.2,0,.7-.5,1.2-1.2,1.2,0,0-.2,0-.2,0h-.7c0,0-.1,0-.2,0Z"/>
      <path class="cls-1" d="M-20.1,29.6c-.7,0-1.2-.6-1.2-1.2,0-.7.5-1.2,1.2-1.2.2,0,.4,0,.6,0s.4,0,.6,0c.6,0,1.1.6,1.2,1.2,0,.7-.5,1.2-1.1,1.3,0,0-.2,0-.2,0h-.4s-.3,0-.3,0c0,0-.1,0-.2,0Z"/>
      <path class="cls-2" d="M10.9,12.5v22.4h23.5V12.5H10.9ZM32,32.3H13.3V15.1h18.7v17.2Z"/>
      <rect class="cls-1" x="10" y="34.9" width="25" height="2.6"/>
      <rect class="cls-1" x="21.5" y="15.1" width="2.6" height="17.2"/>
      <rect class="cls-1" x="21.3" y="14.4" width="2.6" height="18.7" transform="translate(46.3 1.1) rotate(90)"/>
    </g>
    <g id="Layer_2">
      <rect class="cls-3" y="0" width="45" height="50"/>
      <rect class="cls-3" x="10" y="12.5" width="25" height="25"/>
    </g>
  </g>
</svg>