<?xml version="1.0" encoding="UTF-8"?>
<svg xmlns="http://www.w3.org/2000/svg" version="1.1" viewBox="0 0 45 50">
  <defs>
    <style>
      .cls-1 {
        fill: #00aeef;
      }

      .cls-2 {
        fill: #fff;
      }

      .cls-3 {
        fill: none;
      }
    </style>
  </defs>
  <!-- Generator: Adobe Illustrator 28.6.0, SVG Export Plug-In . SVG Version: 1.2.0 Build 709)  -->
  <g>
    <g id="Layer_1">
      <path class="cls-1" d="M-67.2,19.7c-.3,0-.6-.2-.7-.6-.3-.9-.7-1.9-1-2.8-.2-.5,0-1,.6-1.2.5-.2,1,0,1.2.5.4.9.7,1.9,1,2.8.2.6-.3,1.2-1,1.2Z"/>
      <rect class="cls-3" y="0" width="45" height="50"/>
      <rect class="cls-3" x="10" y="12.5" width="25" height="25"/>
      <path class="cls-1" d="M10,35.7c.2-.5.5-.6,1-.6,5.4,0,10.8,0,16.2,0,.6,0,1,.5.8,1.1-.1.3-.3.5-.6.5,0,0-.2,0-.3,0-5.4,0-10.7,0-16.1,0-.5,0-.8-.1-.9-.6v-.4Z"/>
      <path class="cls-1" d="M10,32.2c.2-.5.6-.6,1.1-.6,2.7,0,5.4,0,8.2,0,.7,0,1.1.5.8,1.1-.1.3-.4.5-.8.5-.5,0-1,0-1.4,0-2.3,0-4.5,0-6.8,0-.5,0-.9-.1-1-.6v-.4Z"/>
      <path class="cls-1" d="M10,28.6c.2-.5.6-.6,1.1-.6,1.5,0,3.1,0,4.6,0,.6,0,1,.5.8,1.1-.1.3-.4.5-.7.5-1.7,0-3.3,0-5,0-.4,0-.6-.3-.8-.6v-.4Z"/>
      <path class="cls-1" d="M10,25.1c.2-.5.6-.6,1.1-.6,1.1,0,2.2,0,3.3,0,.6,0,1,.5.8,1.1-.1.3-.4.5-.7.5-1.2,0-2.4,0-3.7,0-.4,0-.6-.3-.8-.6v-.4Z"/>
      <path class="cls-2" d="M34.6,33.2c-.8-1.3-1.6-2.6-2.5-3.8-.9-1.4-1.8-2.8-2.7-4.2.9-1.3,1.4-2.7,1.5-4.3.2-4.2-3.1-8.1-7.7-8.2-4.2-.1-7.8,3.1-8.1,7.3-.2,2.7.7,4.9,2.8,6.7,2,1.7,4.3,2.2,6.8,1.7,1,1.6,2,3.2,3.1,4.8.8,1.2,1.5,2.4,2.4,3.5.9,1.2,2.7,1.2,3.8.4,1.2-.9,1.4-2.5.6-3.7ZM21.8,26.4c-3.3-.7-5.4-3.9-4.8-7.2.7-3.5,4.1-5.4,7.2-4.7,3.3.7,5.4,3.9,4.7,7.2-.7,3.2-3.9,5.4-7.2,4.7Z"/>
    </g>
  </g>
</svg>