<?xml version="1.0" encoding="UTF-8"?>
<svg xmlns="http://www.w3.org/2000/svg" version="1.1" viewBox="0 0 45 50">
  <defs>
    <style>
      .cls-1 {
        fill: #00aeef;
      }

      .cls-2 {
        fill: #fff;
      }

      .cls-3 {
        fill: none;
      }
    </style>
  </defs>
  <!-- Generator: Adobe Illustrator 28.6.0, SVG Export Plug-In . SVG Version: 1.2.0 Build 709)  -->
  <g>
    <g id="Layer_1">
      <g>
        <path class="cls-2" d="M54.3-58.1c.6,0,1.1-.2,1.5-.6s.6-1,.6-1.8-.2-1.1-.5-1.5-.8-.6-1.3-.6-.7,0-.9.2-.4.3-.6.5-.3.5-.4.8-.2.7-.3.9c0,.2-.2.3-.3.4s-.3.1-.6.1-.5-.1-.7-.4-.3-.6-.3-1,0-.8.3-1.3.5-.9.9-1.3.8-.7,1.4-1,1.2-.4,1.9-.4,1.1.1,1.6.3.9.5,1.3.9.6.8.8,1.3.3,1,.3,1.6-.1,1.4-.4,2-.7,1.1-1.2,1.6c.5.3.9.7,1.2,1.1s.6.9.7,1.4.3,1,.3,1.6-.1,1.4-.3,2-.6,1.2-1,1.7-1,.9-1.6,1.2-1.3.4-2,.4-1.4-.2-2-.5-1.1-.7-1.5-1.2-.7-1-.9-1.5-.3-1-.3-1.3.1-.8.3-1.1.5-.4.9-.4.3,0,.5.2.3.3.3.5c.3,1.1.7,1.8,1,2.4s.9.8,1.6.8.8-.1,1.1-.3.6-.6.9-1,.3-1,.3-1.6c0-.9-.2-1.6-.6-2.1s-.9-.8-1.6-.8-.3,0-.6,0-.4,0-.5,0c-.3,0-.6-.1-.8-.3s-.3-.5-.3-.9.1-.7.3-.9.6-.3,1-.3h.4Z"/>
        <path class="cls-2" d="M63.5-64.8h3.6c.9,0,1.7.1,2.4.3s1.3.6,1.8,1.2c1.4,1.5,2.1,3.8,2.1,6.8s0,1.9-.2,2.8-.4,1.6-.7,2.2-.7,1.3-1.1,1.8c-.4.4-.8.7-1.2,1s-.9.4-1.4.5-1.1.1-1.7.1h-3.6c-.5,0-.9,0-1.1-.3s-.4-.4-.5-.8-.1-.8-.1-1.3v-12.3c0-.7.1-1.3.4-1.6s.7-.5,1.3-.5ZM64.6-62.1v11.4h2.1c.5,0,.8,0,1.1,0s.5-.1.8-.2.5-.3.7-.5c.9-1,1.4-2.6,1.4-5s-.2-2.9-.6-3.7-.9-1.3-1.5-1.6-1.3-.3-2.2-.3h-1.8Z"/>
      </g>
      <g>
        <path class="cls-1" d="M55.8-60c.6,0,1.1-.2,1.5-.6s.6-1,.6-1.8-.2-1.1-.5-1.5-.8-.6-1.3-.6-.7,0-.9.2-.4.3-.6.5-.3.5-.4.8-.2.7-.3.9c0,.2-.2.3-.3.4s-.3.1-.6.1-.5-.1-.7-.4-.3-.6-.3-1,0-.8.3-1.3.5-.9.9-1.3.8-.7,1.4-1,1.2-.4,1.9-.4,1.1.1,1.6.3.9.5,1.3.9.6.8.8,1.3.3,1,.3,1.6-.1,1.4-.4,2-.7,1.1-1.2,1.6c.5.3.9.7,1.2,1.1s.6.9.7,1.4.3,1,.3,1.6-.1,1.4-.3,2-.6,1.2-1,1.7-1,.9-1.6,1.2-1.3.4-2,.4-1.4-.2-2-.5-1.1-.7-1.5-1.2-.7-1-.9-1.5-.3-1-.3-1.3.1-.8.3-1.1.5-.4.9-.4.3,0,.5.2.3.3.3.5c.3,1.1.7,1.8,1,2.4s.9.8,1.6.8.8-.1,1.1-.3.6-.6.9-1,.3-1,.3-1.6c0-.9-.2-1.6-.6-2.1s-.9-.8-1.6-.8-.3,0-.6,0-.4,0-.5,0c-.3,0-.6-.1-.8-.3s-.3-.5-.3-.9.1-.7.3-.9.6-.3,1-.3h.4Z"/>
        <path class="cls-1" d="M65.1-66.6h3.6c.9,0,1.7.1,2.4.3s1.3.6,1.8,1.2c1.4,1.5,2.1,3.8,2.1,6.8s0,1.9-.2,2.8-.4,1.6-.7,2.2-.7,1.3-1.1,1.8c-.4.4-.8.7-1.2,1s-.9.4-1.4.5-1.1.1-1.7.1h-3.6c-.5,0-.9,0-1.1-.3s-.4-.4-.5-.8-.1-.8-.1-1.3v-12.3c0-.7.1-1.3.4-1.6s.7-.5,1.3-.5ZM66.1-64v11.4h2.1c.5,0,.8,0,1.1,0s.5-.1.8-.2.5-.3.7-.5c.9-1,1.4-2.6,1.4-5s-.2-2.9-.6-3.7-.9-1.3-1.5-1.6-1.3-.3-2.2-.3h-1.8Z"/>
      </g>
      <rect class="cls-3" width="45" height="50"/>
      <path class="cls-3" d="M9.9,37.8c0,0-.1,0-.2,0s0-.1,0-.2V12.5c.1-.2.2-.3.4-.3h25c0,0,.1,0,.2,0,0,0,0,.1,0,.2v25c-.1.2-.2.3-.4.3H9.9Z"/>
      <path class="cls-2" d="M27.5,37.6c-.7,0-1.3-.2-2-.5-1.4-.6-2.7-1.3-3.9-1.9-.9-.5-1.5-1.3-1.5-2.4,0-1.6,0-3.2,0-4.8v-1.8s0,0,0-.1v-1.8c0-1.6,0-3.1,0-4.7,0-1,.4-1.6,1.3-2,.8-.3,1.6-.8,2.4-1.1h.1c.3-.2.6-.3.8-.3s.5,0,.8.2c.4.2.8.4,1.2.6.8.4,1.6.8,2.4,1.2,2,1.1,3.5,2.8,4.7,5.3,1.1,2.3,1.5,4.8,1.2,7.3,0,1-.5,2-.8,2.9-.3.7-.9,1.3-1.8,1.7-.9.4-1.9.9-2.9,1.4-.7.4-1.4.6-2.2.6ZM21.6,19.2s0,.1,0,.3c0,4.5,0,8.9,0,13.4,0,.3,0,1,.7,1.3,1.4.7,2.7,1.4,4,1.9.4.2.8.2,1.3.2s.2,0,.2,0c.9,0,1.5-.5,2-1.5.6-1.1.7-2.4.7-3.5,0-1.7-.3-3.1-.7-4.5-.9-2.6-2.1-4.3-4-5.5-.9-.6-1.8-1-2.8-1.5-.4-.2-.8-.4-1.2-.6-.2,0-.3-.1-.3-.1ZM23.6,18.6c.7.3,1.3.6,1.9,1,1.3.6,2.3,1.4,3.1,2.3,3.2,3.8,4.2,8.1,2.9,12.8,1.1-.4,1.7-1.3,2-2.5.5-2.3.4-4.6-.5-7-.8-2.4-2-4-3.6-5.1-1-.7-2.1-1.2-3.2-1.8-.5-.2-.9-.5-1.4-.7h0s0,0,0,0c-.5.2-1,.5-1.6.8h0s.4.2.4.2Z"/>
      <path class="cls-2" d="M26.7,34.6c-.5,0-1.1-.2-1.8-.5-.2,0-.4-.2-.6-.3-.4-.2-.7-.4-1.1-.5-.5-.2-.7-.5-.7-1.1,0-.6,0-1.1,0-1.7v-.8s0-2.4,0-2.4c0,0,0,0,0-.1v-5.1c0-.8.4-.9.7-.9s.4,0,.7.2l.4.2c.2.1.5.3.8.4,2,.9,3.4,2.3,4.1,4.5.7,2.2.8,4.1.2,5.9,0,.1,0,.3-.1.4-.5,1.2-1.4,1.8-2.5,1.8ZM24.8,32.6c.3.2.6.3.9.4.4.2.7.3,1,.3.5,0,.9-.3,1.1-.9h-.2c-.4-.3-.7-.4-1.1-.6h0s0,0,0,0c-.5.2-1.1.5-1.6.8h0ZM24,31.5s0,0,.1,0c.4-.2.8-.4,1.1-.5.5-.2.5-.4.5-.7,0-1,0-2,0-2.9v-.9c0-.4.3-.8.7-.8s.3,0,.4.1c.2.2.3.5.3.7,0,.7,0,1.5,0,2.2,0,.6,0,1.2,0,1.9,0,0,0,.2,0,.2.3.2.6.3.9.4h0c.2-1.7,0-3.4-.8-5.1-.6-1.4-1.7-2.4-3.4-3v8.5Z"/>
      <path class="cls-2" d="M16,32c-.6,0-1.1-.1-1.7-.4-1.1-.5-2-1.2-2.8-2.3-1.3-1.7-1.9-3.4-1.9-5.2,0-.7.3-1.1,1-1.4.3-.1.6-.3.9-.4l.6-.3c.3-.2.6-.3.7-.6.1-.3.4-.4.6-.5.3-.2.6-.3.9-.4.3-.2.7-.3,1-.5,0,0,0,0,0-.1-.2-.8-.6-1.3-1.3-1.7-.1,0-.3-.1-.4-.1s-.2,0-.3.3c0,.1,0,.2,0,.2-.2.6-.7,1-1.3,1s-.7-.1-1-.3c-1.1-.6-1.6-2-1.2-3.2.3-1,.9-1.7,1.9-2.1.9-.4,1.8-.9,2.5-1.2.6-.3,1.2-.5,1.9-.5s1.2.1,1.9.4c1.6.8,2.8,2.1,3.8,4,0,.2,0,.4,0,.5,0,.1-.2.3-.3.3,0,0-.1,0-.2,0h0c-.2,0-.5,0-.7-.3-.1-.1-.2-.3-.3-.5,0-.1-.1-.2-.2-.3-.2-.2-.3-.4-.4-.5-.5-.6-.9-1.1-1.5-1.6-.7-.6-1.3-.8-2-.8s-1.1.2-1.6.5c0,0,0,0-.1,0,2.4,1,3.5,2.9,4.1,4.3.8,1.7,1,3.2.5,4.6-.2.5-.5,1-.7,1.3,0,.1,0,.2,0,.3.9,1.7,1.2,3.2.9,4.6,0,.1,0,.2,0,.3,0,0,0,0,0,0,.3,0,.5,0,.6.3.2.2.2.4.1.5,0,.3-.4.4-.6.5l-.4.2c-.4.2-.8.4-1.1.6-.6.3-1.1.5-1.7.5ZM11.1,24c0,0,0,.2,0,.3,0,2.1.9,3.8,2.6,5.3.5.4,1.1.8,1.7,1,.3.1.5.2.8.2.6,0,1.1-.3,1.4-.9.2-.6.4-1.2.3-1.9,0-1.2-.5-2.3-1-3.2-.1-.3-.1-.7.1-.9.7-.5,1-1.3.9-2.4,0-1.8-.9-3.5-2.3-5-.6-.6-1.3-1.1-2-1.3-.3,0-.5-.1-.8-.1s-.6,0-.9.2c-.5.3-.8.8-.8,1.4,0,.6.2,1.1.6,1.4.2.1.2.1.3.1s0,0,0-.2c.2-.8.8-1.4,1.7-1.4s.7,0,1.1.3c1.5.7,2.4,2.8,2,4.2-.2.8-.8,1.2-1.6,1.2s-.6,0-.9-.2c-.2,0-.3,0-.3,0,0,0,0,0,0,0,0,0,0,0,0,.2,0,.6.4,1.1.9,1.4,1.5.8,2.3,2.7,2,4-.2.8-.9,1.3-1.7,1.3s-.8-.1-1.2-.4c-.8-.5-1.4-1.2-1.7-2.1-.1-.3-.2-.7-.2-1,0-.2,0-.4-.1-.6-.1-.5-.4-.9-.8-1.1ZM12.4,23.3c.6.6.9,1.3,1,2.3,0,.9.5,1.6,1.4,2.1.2.1.3.1.4.1s.2,0,.3-.3c.2-.7-.2-2-1.2-2.5-.8-.5-1.3-1-1.6-1.8h-.3Z"/>
      <path class="cls-1" d="M16.1,32.2c-.4,0-.9,0-1.3-.3-.8-.3-1.5-.8-2.1-1.3-1.9-1.7-3-3.9-3-6.3,0-.3,0-.5.1-.7.1-.4.4-.7.8-.9.2,0,.4-.1.5-.1s.4,0,.6.2c.8.4,1.3,1.1,1.6,2,0,.2,0,.4.1.7,0,.3,0,.5.2.8.2.6.5,1,1.1,1.3.2,0,.3.2.5.2s.2,0,.3-.3c.2-.7-.3-1.9-1.3-2.4-.9-.5-1.5-1.4-1.6-2.4,0-.2,0-.8.4-1.3.3-.3.7-.5,1.1-.5s.1,0,.2,0c.2,0,.4,0,.6.2.1,0,.3,0,.4,0,.2,0,.2,0,.3-.2.2-.7-.4-2-1.3-2.5-.2,0-.3-.1-.4-.1s-.2,0-.3.3c-.2.9-.9,1.3-1.5,1.3s-.8-.2-1.2-.5c-.8-.6-1.2-1.6-1.1-2.6,0-1,.6-2,1.5-2.5.5-.3,1-.4,1.6-.4s.8,0,1.2.2c1,.3,1.8.9,2.6,1.7,1.7,1.7,2.6,3.7,2.7,5.9,0,1.3-.3,2.3-1,3.1.5,1,1,2.1,1,3.4,0,.9-.1,1.8-.5,2.5-.4,1.1-1.5,1.8-2.7,1.8Z"/>
      <path class="cls-1" d="M11.1,24c0,0,0,.2,0,.3,0,2.1.9,3.8,2.6,5.3.5.4,1.1.8,1.7,1,.3.1.5.2.8.2.6,0,1.1-.3,1.4-.9.2-.6.4-1.2.3-1.9,0-1.2-.5-2.3-1-3.2-.1-.3-.1-.7.1-.9.7-.5,1-1.3.9-2.4,0-1.8-.9-3.5-2.3-5-.6-.6-1.3-1.1-2-1.3-.3,0-.5-.1-.8-.1s-.6,0-.9.2c-.5.3-.8.8-.8,1.4,0,.6.2,1.1.6,1.4.2.1.2.1.3.1s0,0,0-.2c.2-.8.8-1.4,1.7-1.4s.7,0,1.1.3c1.5.7,2.4,2.8,2,4.2-.2.8-.8,1.2-1.6,1.2s-.6,0-.9-.2c-.2,0-.3,0-.3,0,0,0,0,0,0,0,0,0,0,0,0,.2,0,.6.4,1.1.9,1.4,1.5.8,2.3,2.7,2,4-.2.8-.9,1.3-1.7,1.3s-.8-.1-1.2-.4c-.8-.5-1.4-1.2-1.7-2.1-.1-.3-.2-.7-.2-1,0-.2,0-.4-.1-.6-.1-.5-.4-.9-.8-1.1Z"/>
      <path class="cls-1" d="M27.6,37.7c-.7,0-1.3-.1-1.9-.4-1.3-.6-2.6-1.2-4.1-1.9-.9-.5-1.5-1.4-1.5-2.6,0-4.5,0-8.9,0-13.4,0-1.6,1.3-1.7,1.4-1.7.4,0,.7.1,1,.3.4.2.8.4,1.2.6,1,.5,2,1,2.9,1.6,2.8,1.8,3.9,4.4,4.6,6.2.5,1.5.8,3.1.8,4.9,0,1.3-.2,2.7-.9,4.1-.3.5-1.1,2.1-3.2,2.3-.1,0-.2,0-.3,0ZM24,32.1c.4.2.7.3,1,.5.2,0,.4.2.5.3.4.2.8.3,1.2.3h0c.2,0,.7,0,1.2-1,0,0,0-.2,0-.2.5-1.5.4-3.2-.2-5.1-.6-1.8-1.6-2.9-3.3-3.6-.2,0-.3-.2-.5-.2v3.9c0,0,0,.2,0,.2v2.5s0,.8,0,.8c0,.5,0,1,0,1.6Z"/>
    </g>
  </g>
</svg>