<?xml version="1.0" encoding="UTF-8"?>
<svg xmlns="http://www.w3.org/2000/svg" version="1.1" viewBox="0 0 45 50">
  <defs>
    <style>
      .cls-1 {
        fill: #00aeef;
      }

      .cls-2 {
        fill: #fff;
      }

      .cls-3 {
        fill: none;
      }
    </style>
  </defs>
  <!-- Generator: Adobe Illustrator 28.6.0, SVG Export Plug-In . SVG Version: 1.2.0 Build 709)  -->
  <g>
    <g id="Layer_1">
      <rect class="cls-3" y="0" width="45" height="50"/>
      <polygon class="cls-3" points="10 12.5 35 12.5 34.9 37.5 9.9 37.5 10 12.5"/>
      <path class="cls-2" d="M9.9,27.1c0-.6,0-1.2,0-1.8,0-1.6,1.1-2.8,2.5-3.2.4-.1.7-.3.9-.8.3-.8.6-1.5.9-2.3.6-1.4,1.8-2.2,3.3-2.2,2.3,0,4.7,0,7,0,1.1,0,2.1.5,2.8,1.4.7.9,1.5,1.8,2.2,2.7.5.7,1.1,1,2,1.2,1,.2,1.9.5,2.6,1.3.6.7.9,1.4.9,2.3,0,1.2,0,2.3,0,3.5,0,.5-.3.8-.8.9-.4,0-.8,0-1.2,0-.3,0-.5.1-.6.4-.4,1.1-1.1,1.8-2.1,2.3-1.8.8-4.3-.3-4.8-2.3,0-.3-.2-.4-.5-.4-1.6,0-3.3,0-4.9,0-.3,0-.4,0-.5.4-.4,1.4-1.8,2.5-3.3,2.5-1.5,0-3-.9-3.5-2.3q-.3-.7-1-.7c-.3,0-.6,0-1,0-.5,0-.8-.3-.8-.8,0-.7,0-1.4,0-2.2ZM17.7,21.8c.9,0,1.7,0,2.6,0,.3,0,.4,0,.4-.4,0-.9,0-1.7,0-2.6,0-.3,0-.4-.4-.4-1,0-2,0-3,0-.8,0-1.4.5-1.8,1.1-.3.6-.5,1.2-.8,1.8-.1.3,0,.4.3.4.9,0,1.7,0,2.6,0ZM28.2,21.8c-.7-.9-1.4-1.8-2.1-2.6-.4-.5-1-.8-1.6-.8-.6,0-1.3,0-1.9,0-.3,0-.4,0-.4.4,0,.8,0,1.7,0,2.5,0,.4.1.5.5.5,1.7,0,3.3,0,5,0,.1,0,.3,0,.5,0ZM16,27.2c-1.2,0-2.2,1-2.2,2.2,0,1.2,1,2.2,2.2,2.2,1.2,0,2.2-.9,2.2-2.2,0-1.2-.9-2.2-2.2-2.2ZM28.8,31.6c1.2,0,2.2-.9,2.2-2.2,0-1.2-1-2.2-2.2-2.2-1.2,0-2.2.9-2.2,2.1,0,1.2.9,2.2,2.2,2.2Z"/>
      <path class="cls-1" d="M21.8,23.3c-2.5,0-4.9,0-7.4,0-.6,0-1.2.2-1.7.3-.9.3-1.3.8-1.3,1.8,0,.8,0,1.6,0,2.5,0,.7,0,.7.8.7.4,0,.4-.4.5-.6.5-1.4,2-2.4,3.5-2.3,1.6,0,3,1.1,3.4,2.6,0,.3.2.4.5.4,1.6,0,3.3,0,4.9,0,.3,0,.4-.1.5-.4.4-1.2,1.2-2,2.4-2.4,2-.6,3.8.4,4.5,2.3.2.4.7.6,1,.4,0,0,.2-.2.2-.3,0-1,0-1.9,0-2.9,0-.7-.5-1.3-1.2-1.6-.9-.3-1.9-.6-2.9-.6-2.5,0-5,0-7.5,0Z"/>
    </g>
  </g>
</svg>