<?xml version="1.0" encoding="UTF-8"?>
<svg id="Layer_1" xmlns="http://www.w3.org/2000/svg" version="1.1" viewBox="0 0 45 50">
  <!-- Generator: Adobe Illustrator 29.1.0, SVG Export Plug-In . SVG Version: 2.1.0 Build 142)  -->
  <defs>
    <style>
      .st0 {
        fill: #00aeef;
      }

      .st1 {
        fill: #fff;
      }

      .st2 {
        fill: none;
      }
    </style>
  </defs>
  <rect class="st2" width="45" height="50"/>
  <polygon class="st2" points="10 12.5 35 12.5 34.9 37.5 9.9 37.5 10 12.5"/>
  <g>
    <path class="st1" d="M19.6,35.9c-.5,0-2.5-.7-3.1-.9-8.6-3.6-8.8-15.9-.6-20.1,9.2-4.6,19.1,4.9,15,14.3s-.9,1.3-1.1,2.1h8.4v4.6h-18.6ZM18.7,31.1c9.2,3,12.2-11.6,3.2-12.8s-10.6,10.4-3.2,12.8Z"/>
    <path class="st0" d="M18.7,27c2.8,2.8,7.3-1.4,4.5-4.4s-7.4,1.5-4.5,4.4Z"/>
  </g>
</svg>