<?xml version="1.0" encoding="UTF-8"?>
<svg xmlns="http://www.w3.org/2000/svg" version="1.1" viewBox="0 0 45 50">
  <defs>
    <style>
      .cls-1 {
        fill: #00aeef;
      }

      .cls-2 {
        fill: #fff;
      }

      .cls-3 {
        fill: none;
      }
    </style>
  </defs>
  <!-- Generator: Adobe Illustrator 28.6.0, SVG Export Plug-In . SVG Version: 1.2.0 Build 709)  -->
  <g>
    <g id="Layer_1">
      <rect class="cls-3" y="0" width="45" height="50"/>
      <polygon class="cls-3" points="10 12.5 35 12.5 34.9 37.5 9.9 37.5 10 12.5"/>
      <g>
        <path class="cls-2" d="M80.2,30.6c.6,0,1.1-.2,1.5-.6s.6-1,.6-1.8-.2-1.1-.5-1.5-.8-.6-1.3-.6-.7,0-.9.2-.4.3-.6.5-.3.5-.4.8-.2.7-.3.9c0,.2-.2.3-.3.4s-.3.1-.6.1-.5-.1-.7-.4-.3-.6-.3-1,0-.8.3-1.3.5-.9.9-1.3.8-.7,1.4-1,1.2-.4,1.9-.4,1.1.1,1.6.3.9.5,1.3.9.6.8.8,1.3.3,1,.3,1.6-.1,1.4-.4,2-.7,1.1-1.2,1.6c.5.3.9.7,1.2,1.1s.6.9.7,1.4.3,1,.3,1.6-.1,1.4-.3,2-.6,1.2-1,1.7-1,.9-1.6,1.2-1.3.4-2,.4-1.4-.2-2-.5-1.1-.7-1.5-1.2-.7-1-.9-1.5-.3-1-.3-1.3.1-.8.3-1.1.5-.4.9-.4.3,0,.5.2.3.3.3.5c.3,1.1.7,1.8,1,2.4s.9.8,1.6.8.8-.1,1.1-.3.6-.6.9-1,.3-1,.3-1.6c0-.9-.2-1.6-.6-2.1s-.9-.8-1.6-.8-.3,0-.6,0-.4,0-.5,0c-.3,0-.6-.1-.8-.3s-.3-.5-.3-.9.1-.7.3-.9.6-.3,1-.3h.4Z"/>
        <path class="cls-2" d="M89.5,24h3.6c.9,0,1.7.1,2.4.3s1.3.6,1.8,1.2c1.4,1.5,2.1,3.8,2.1,6.8s0,1.9-.2,2.8-.4,1.6-.7,2.2-.7,1.3-1.1,1.8c-.4.4-.8.7-1.2,1s-.9.4-1.4.5-1.1.1-1.7.1h-3.6c-.5,0-.9,0-1.1-.3s-.4-.4-.5-.8-.1-.8-.1-1.3v-12.3c0-.7.1-1.3.4-1.6s.7-.5,1.3-.5ZM90.5,26.7v11.4h2.1c.5,0,.8,0,1.1,0s.5-.1.8-.2.5-.3.7-.5c.9-1,1.4-2.6,1.4-5s-.2-2.9-.6-3.7-.9-1.3-1.5-1.6-1.3-.3-2.2-.3h-1.8Z"/>
      </g>
      <g>
        <path class="cls-1" d="M81.7,28.7c.6,0,1.1-.2,1.5-.6s.6-1,.6-1.8-.2-1.1-.5-1.5-.8-.6-1.3-.6-.7,0-.9.2-.4.3-.6.5-.3.5-.4.8-.2.7-.3.9c0,.2-.2.3-.3.4s-.3.1-.6.1-.5-.1-.7-.4-.3-.6-.3-1,0-.8.3-1.3.5-.9.9-1.3.8-.7,1.4-1,1.2-.4,1.9-.4,1.1.1,1.6.3.9.5,1.3.9.6.8.8,1.3.3,1,.3,1.6-.1,1.4-.4,2-.7,1.1-1.2,1.6c.5.3.9.7,1.2,1.1s.6.9.7,1.4.3,1,.3,1.6-.1,1.4-.3,2-.6,1.2-1,1.7-1,.9-1.6,1.2-1.3.4-2,.4-1.4-.2-2-.5-1.1-.7-1.5-1.2-.7-1-.9-1.5-.3-1-.3-1.3.1-.8.3-1.1.5-.4.9-.4.3,0,.5.2.3.3.3.5c.3,1.1.7,1.8,1,2.4s.9.8,1.6.8.8-.1,1.1-.3.6-.6.9-1,.3-1,.3-1.6c0-.9-.2-1.6-.6-2.1s-.9-.8-1.6-.8-.3,0-.6,0-.4,0-.5,0c-.3,0-.6-.1-.8-.3s-.3-.5-.3-.9.1-.7.3-.9.6-.3,1-.3h.4Z"/>
        <path class="cls-1" d="M91,22.1h3.6c.9,0,1.7.1,2.4.3s1.3.6,1.8,1.2c1.4,1.5,2.1,3.8,2.1,6.8s0,1.9-.2,2.8-.4,1.6-.7,2.2-.7,1.3-1.1,1.8c-.4.4-.8.7-1.2,1s-.9.4-1.4.5-1.1.1-1.7.1h-3.6c-.5,0-.9,0-1.1-.3s-.4-.4-.5-.8-.1-.8-.1-1.3v-12.3c0-.7.1-1.3.4-1.6s.7-.5,1.3-.5ZM92.1,24.8v11.4h2.1c.5,0,.8,0,1.1,0s.5-.1.8-.2.5-.3.7-.5c.9-1,1.4-2.6,1.4-5s-.2-2.9-.6-3.7-.9-1.3-1.5-1.6-1.3-.3-2.2-.3h-1.8Z"/>
      </g>
      <path class="cls-2" d="M20.5,26.2c0-2.2,0-4.4,0-6.5,0-.8.3-1.3,1.1-1.7.9-.4,1.7-.8,2.5-1.2.5-.2.9-.3,1.4,0,1.2.6,2.4,1.2,3.6,1.8,2.3,1.2,3.6,3.1,4.6,5.2,1.1,2.3,1.4,4.7,1.2,7.2,0,1-.5,1.9-.8,2.9-.3.7-.9,1.2-1.6,1.6-1,.5-1.9.9-2.9,1.4-1.3.7-2.6.7-3.9.1-1.3-.6-2.6-1.2-3.8-1.9-.9-.5-1.3-1.2-1.3-2.1,0-2.2,0-4.5,0-6.7,0,0,0,0,0,0ZM30.9,31.3c0-1.6-.2-3.1-.8-4.6-.8-2.2-1.9-4.2-4.1-5.6-1.2-.8-2.6-1.4-4-2.1-.6-.3-.7-.2-.7.4,0,4.5,0,8.9,0,13.4,0,.6.3,1.2.9,1.6,1.3.7,2.6,1.3,4,1.9.5.2,1.1.3,1.7.3,1.2,0,1.8-.8,2.3-1.7.6-1.2.7-2.4.8-3.6ZM31.1,35.1c1.6-.4,2.4-1.5,2.7-2.9.5-2.4.3-4.8-.5-7.2-.7-2-1.7-3.9-3.7-5.3-1.4-.9-3.1-1.7-4.6-2.5,0,0-.3,0-.4,0-.7.3-1.4.7-2.1,1,1,.5,1.9,1,2.9,1.4,1.2.6,2.2,1.3,3,2.2,3.4,4,4.1,8.4,2.8,13.1Z"/>
      <path class="cls-1" d="M10.9,23.6c.8.3,1.1.8,1.3,1.4.1.5.2,1,.3,1.5.3.8.8,1.4,1.6,1.9,1.1.6,2.2.3,2.5-.8.3-1.3-.5-2.9-1.8-3.7-.7-.4-1-.9-1-1.6,0-.5.2-.6.7-.4,1,.4,1.9,0,2.1-.9.4-1.3-.5-3.2-1.9-3.8-1.1-.5-2.1-.2-2.4.9-.1.5-.4.5-.8.2-1-.8-.9-2.6.3-3.3.6-.4,1.2-.3,1.9-.1.9.3,1.5.8,2.1,1.4,1.4,1.5,2.3,3.2,2.4,5.1,0,1-.1,1.9-1,2.6-.1,0-.1.4,0,.6.6,1.1,1,2.1,1.1,3.3,0,.7-.1,1.4-.4,2.1-.4,1-1.4,1.3-2.5.9-.7-.3-1.3-.6-1.8-1.1-1.7-1.5-2.6-3.4-2.7-5.5,0-.2,0-.4.2-.6Z"/>
      <path class="cls-1" d="M30.9,31.3c0,1.2-.2,2.4-.8,3.6-.4.8-1.1,1.6-2.3,1.7-.6,0-1.2,0-1.7-.3-1.4-.6-2.7-1.2-4-1.9-.6-.3-.9-.9-.9-1.6,0-4.5,0-8.9,0-13.4,0-.6.2-.7.7-.4,1.3.7,2.7,1.3,4,2.1,2.2,1.4,3.3,3.4,4.1,5.6.5,1.5.7,3,.8,4.6ZM22.8,27.3h0c0,.8,0,1.7,0,2.5,0,.8,0,1.7,0,2.5,0,.4.1.6.5.8.6.2,1.1.5,1.7.8,1.8.9,3.1.4,3.9-1.2,0-.1,0-.2.1-.4.6-1.9.4-3.9-.2-5.8-.6-1.9-1.8-3.4-3.9-4.3-.4-.2-.8-.4-1.2-.6-.7-.3-.9-.2-.9.5,0,1.7,0,3.4,0,5.1Z"/>
      <path class="cls-2" d="M22.8,27.3c0-1.7,0-3.4,0-5.1,0-.7.3-.8.9-.5.4.2.8.4,1.2.6,2.1.9,3.3,2.4,3.9,4.3.6,1.9.8,3.8.2,5.8,0,.1,0,.3-.1.4-.7,1.6-2.1,2.1-3.9,1.2-.6-.3-1.1-.6-1.7-.8-.4-.2-.5-.4-.5-.8,0-.8,0-1.7,0-2.5,0-.8,0-1.7,0-2.5h0ZM23.7,22.6v9.4c.6-.3,1.1-.6,1.7-.8.5-.2.7-.5.7-1,0-1.3,0-2.5,0-3.8,0-.4.3-.6.6-.4.1,0,.2.3.2.5,0,1.4,0,2.7,0,4.1,0,.1,0,.3.2.4.4.2.8.4,1.3.6.3-2,0-3.9-.7-5.7-.7-1.6-2.1-2.7-3.9-3.3ZM24.1,32.6c.5.3,1,.5,1.4.7,1.3.6,2.2.3,2.6-1-.5-.2-1-.5-1.5-.7,0,0-.2,0-.3,0-.7.3-1.4.7-2.2,1Z"/>
      <path class="cls-2" d="M21.5,16.8c-.8-1.6-1.8-3-3.7-3.9-1.1-.5-2.3-.6-3.5,0-.8.4-1.6.8-2.5,1.2-1,.4-1.5,1.1-1.8,2-.3,1.1.1,2.3,1.1,2.9.8.5,1.6.3,1.9-.6,0,0,0-.1,0-.2.2-.5.6-.7,1.1-.4.8.5,1.2,1.2,1.4,2,0,.1-.1.3-.2.4-.6.3-1.2.6-1.8.9-.2.1-.5.2-.5.4-.2.4-.6.6-1,.8-.5.2-.9.5-1.4.7-.6.3-.8.6-.8,1.2,0,1.8.7,3.5,1.8,5,.7.9,1.5,1.7,2.7,2.2,1.1.5,2.1.5,3.2,0,.5-.3,1-.5,1.5-.8.3-.1.6-.3.4-.6-.1-.1-.5-.1-.8-.2,0-.1,0-.3.1-.6.3-1.6-.2-3-.9-4.4-.1-.2-.1-.4,0-.6.3-.4.6-.8.7-1.2.5-1.5.1-3-.5-4.4-.9-1.9-2.2-3.5-4.6-4.4.2-.1.5-.2.7-.3,1.5-.9,2.8-.6,4,.4.8.6,1.3,1.4,2,2.2.2.2.3.5.5.8,0,.1.4.2.5.1.1,0,.2-.3.2-.4ZM15.6,21v.2c0,0-.2.2-.2.2h-.5l.8-.4ZM12.9,22.8c.3.8.8,1.4,1.6,1.9,1,.6,1.6,2,1.3,2.9-.2.5-.5.7-1.1.4-1-.6-1.4-1.4-1.5-2.3,0-.9-.4-1.7-1.2-2.4.3-.2.6-.3,1-.5ZM15.8,16.3c1.4,1.5,2.3,3.2,2.4,5.1,0,1-.1,1.9-1,2.6-.1,0-.1.4,0,.6.6,1.1,1,2.1,1.1,3.3,0,.7-.1,1.4-.4,2.1-.4,1-1.4,1.3-2.5.9-.7-.3-1.3-.6-1.8-1.1-1.7-1.5-2.6-3.4-2.7-5.5,0-.2,0-.4.2-.6.8.3,1.1.8,1.3,1.4.1.5.2,1,.3,1.5.3.8.8,1.4,1.6,1.9,1.1.6,2.2.3,2.5-.8.3-1.3-.5-2.9-1.8-3.7-.7-.4-1-.9-1-1.6,0-.5.2-.6.7-.4,1,.4,1.9,0,2.1-.9.4-1.3-.5-3.2-1.9-3.8-1.1-.5-2.1-.2-2.4.9-.1.5-.4.5-.8.2-1-.8-.9-2.6.3-3.3.6-.4,1.2-.3,1.9-.1.9.3,1.5.8,2.1,1.4Z"/>
      <rect class="cls-3" x="-60.2" y="0" width="45" height="50"/>
      <polygon class="cls-3" points="-50.2 12.5 -25.2 12.5 -25.3 37.5 -50.3 37.5 -50.2 12.5"/>
      <path class="cls-2" d="M-39.7,26.2c0-2.2,0-4.4,0-6.5,0-.8.3-1.3,1.1-1.7.9-.4,1.7-.8,2.5-1.2.5-.2.9-.3,1.4,0,1.2.6,2.4,1.2,3.6,1.8,2.3,1.2,3.6,3.1,4.6,5.2,1.1,2.3,1.4,4.7,1.2,7.2,0,1-.5,1.9-.8,2.9-.3.7-.9,1.2-1.6,1.6-1,.5-1.9.9-2.9,1.4-1.3.7-2.6.7-3.9.1-1.3-.6-2.6-1.2-3.8-1.9-.9-.5-1.3-1.2-1.3-2.1,0-2.2,0-4.5,0-6.7,0,0,0,0,0,0ZM-29.3,31.3c0-1.6-.2-3.1-.8-4.6-.8-2.2-1.9-4.2-4.1-5.6-1.2-.8-2.6-1.4-4-2.1-.6-.3-.7-.2-.7.4,0,4.5,0,8.9,0,13.4,0,.6.3,1.2.9,1.6,1.3.7,2.6,1.3,4,1.9.5.2,1.1.3,1.7.3,1.2,0,1.8-.8,2.3-1.7.6-1.2.7-2.4.8-3.6ZM-29.1,35.1c1.6-.4,2.4-1.5,2.7-2.9.5-2.4.3-4.8-.5-7.2-.7-2-1.7-3.9-3.7-5.3-1.4-.9-3.1-1.7-4.6-2.5,0,0-.3,0-.4,0-.7.3-1.4.7-2.1,1,1,.5,1.9,1,2.9,1.4,1.2.6,2.2,1.3,3,2.2,3.4,4,4.1,8.4,2.8,13.1Z"/>
      <path class="cls-1" d="M-49.3,23.6c.8.3,1.1.8,1.3,1.4.1.5.2,1,.3,1.5.3.8.8,1.4,1.6,1.9,1.1.6,2.2.3,2.5-.8.3-1.3-.5-2.9-1.8-3.7-.7-.4-1-.9-1-1.6,0-.5.2-.6.7-.4,1,.4,1.9,0,2.1-.9.4-1.3-.5-3.2-1.9-3.8-1.1-.5-2.1-.2-2.4.9-.1.5-.4.5-.8.2-1-.8-.9-2.6.3-3.3.6-.4,1.2-.3,1.9-.1.9.3,1.5.8,2.1,1.4,1.4,1.5,2.3,3.2,2.4,5.1,0,1-.1,1.9-1,2.6-.1,0-.1.4,0,.6.6,1.1,1,2.1,1.1,3.3,0,.7-.1,1.4-.4,2.1-.4,1-1.4,1.3-2.5.9-.7-.3-1.3-.6-1.8-1.1-1.7-1.5-2.6-3.4-2.7-5.5,0-.2,0-.4.2-.6Z"/>
      <path class="cls-1" d="M-29.3,31.3c0,1.2-.2,2.4-.8,3.6-.4.8-1.1,1.6-2.3,1.7-.6,0-1.2,0-1.7-.3-1.4-.6-2.7-1.2-4-1.9-.6-.3-.9-.9-.9-1.6,0-4.5,0-8.9,0-13.4,0-.6.2-.7.7-.4,1.3.7,2.7,1.3,4,2.1,2.2,1.4,3.3,3.4,4.1,5.6.5,1.5.7,3,.8,4.6ZM-37.4,27.3h0c0,.8,0,1.7,0,2.5,0,.8,0,1.7,0,2.5,0,.4.1.6.5.8.6.2,1.1.5,1.7.8,1.8.9,3.1.4,3.9-1.2,0-.1,0-.2.1-.4.6-1.9.4-3.9-.2-5.8-.6-1.9-1.8-3.4-3.9-4.3-.4-.2-.8-.4-1.2-.6-.7-.3-.9-.2-.9.5,0,1.7,0,3.4,0,5.1Z"/>
      <path class="cls-2" d="M-37.4,27.3c0-1.7,0-3.4,0-5.1,0-.7.3-.8.9-.5.4.2.8.4,1.2.6,2.1.9,3.3,2.4,3.9,4.3.6,1.9.8,3.8.2,5.8,0,.1,0,.3-.1.4-.7,1.6-2.1,2.1-3.9,1.2-.6-.3-1.1-.6-1.7-.8-.4-.2-.5-.4-.5-.8,0-.8,0-1.7,0-2.5,0-.8,0-1.7,0-2.5h0ZM-36.5,22.6v9.4c.6-.3,1.1-.6,1.7-.8.5-.2.7-.5.7-1,0-1.3,0-2.5,0-3.8,0-.4.3-.6.6-.4.1,0,.2.3.2.5,0,1.4,0,2.7,0,4.1,0,.1,0,.3.2.4.4.2.8.4,1.3.6.3-2,0-3.9-.7-5.7-.7-1.6-2.1-2.7-3.9-3.3ZM-36,32.6c.5.3,1,.5,1.4.7,1.3.6,2.2.3,2.6-1-.5-.2-1-.5-1.5-.7,0,0-.2,0-.3,0-.7.3-1.4.7-2.2,1Z"/>
      <path class="cls-2" d="M-38.7,16.8c-.8-1.6-1.8-3-3.7-3.9-1.1-.5-2.3-.6-3.5,0-.8.4-1.6.8-2.5,1.2-1,.4-1.5,1.1-1.8,2-.3,1.1.1,2.3,1.1,2.9.8.5,1.6.3,1.9-.6,0,0,0-.1,0-.2.2-.5.6-.7,1.1-.4.8.5,1.2,1.2,1.4,2,0,.1-.1.3-.2.4-.6.3-1.2.6-1.8.9-.2.1-.5.2-.5.4-.2.4-.6.6-1,.8-.5.2-.9.5-1.4.7-.6.3-.8.6-.8,1.2,0,1.8.7,3.5,1.8,5,.7.9,1.5,1.7,2.7,2.2,1.1.5,2.1.5,3.2,0,.5-.3,1-.5,1.5-.8.3-.1.6-.3.4-.6-.1-.1-.5-.1-.8-.2,0-.1,0-.3.1-.6.3-1.6-.2-3-.9-4.4-.1-.2-.1-.4,0-.6.3-.4.6-.8.7-1.2.5-1.5.1-3-.5-4.4-.9-1.9-2.2-3.5-4.6-4.4.2-.1.5-.2.7-.3,1.5-.9,2.8-.6,4,.4.8.6,1.3,1.4,2,2.2.2.2.3.5.5.8,0,.1.4.2.5.1.1,0,.2-.3.2-.4ZM-44.5,21v.2c0,0-.2.2-.2.2h-.5l.8-.4ZM-47.3,22.8c.3.8.8,1.4,1.6,1.9,1,.6,1.6,2,1.3,2.9-.2.5-.5.7-1.1.4-1-.6-1.4-1.4-1.5-2.3,0-.9-.4-1.7-1.2-2.4.3-.2.6-.3,1-.5ZM-44.4,16.3c1.4,1.5,2.3,3.2,2.4,5.1,0,1-.1,1.9-1,2.6-.1,0-.1.4,0,.6.6,1.1,1,2.1,1.1,3.3,0,.7-.1,1.4-.4,2.1-.4,1-1.4,1.3-2.5.9-.7-.3-1.3-.6-1.8-1.1-1.7-1.5-2.6-3.4-2.7-5.5,0-.2,0-.4.2-.6.8.3,1.1.8,1.3,1.4.1.5.2,1,.3,1.5.3.8.8,1.4,1.6,1.9,1.1.6,2.2.3,2.5-.8.3-1.3-.5-2.9-1.8-3.7-.7-.4-1-.9-1-1.6,0-.5.2-.6.7-.4,1,.4,1.9,0,2.1-.9.4-1.3-.5-3.2-1.9-3.8-1.1-.5-2.1-.2-2.4.9-.1.5-.4.5-.8.2-1-.8-.9-2.6.3-3.3.6-.4,1.2-.3,1.9-.1.9.3,1.5.8,2.1,1.4Z"/>
    </g>
  </g>
</svg>