<?xml version="1.0" encoding="UTF-8"?>
<svg xmlns="http://www.w3.org/2000/svg" version="1.1" viewBox="0 0 45 50">
  <defs>
    <style>
      .cls-1 {
        fill: #00aeef;
      }

      .cls-2 {
        fill: #fff;
      }

      .cls-3 {
        fill: none;
      }
    </style>
  </defs>
  <!-- Generator: Adobe Illustrator 28.6.0, SVG Export Plug-In . SVG Version: 1.2.0 Build 709)  -->
  <g>
    <g id="Layer_1">
      <rect class="cls-3" y="0" width="45" height="50"/>
      <polygon class="cls-3" points="10 12.5 35 12.5 34.9 37.5 9.9 37.5 10 12.5"/>
      <path class="cls-2" d="M22.4,27c-.6,0-1.2-.2-1.7-.5-3.1-1.8-6.2-3.6-9.3-5.4-1.1-.7-1.2-2.2,0-2.8,3.1-1.8,6.2-3.6,9.3-5.4,1.2-.7,2.4-.7,3.6,0,3.1,1.8,6.2,3.6,9.3,5.3,1.2.7,1.2,2.2,0,2.8-3.1,1.8-6.2,3.6-9.3,5.4-.6.3-1.2.5-1.9.5ZM31.6,19.8c0,0-.1,0-.1-.1-2.8-1.6-5.6-3.2-8.3-4.8-.4-.3-.9-.2-1.3,0-2.3,1.3-4.6,2.6-6.8,3.9-.5.3-1.1.6-1.6.9.1,0,.2.1.3.2,2.7,1.6,5.4,3.1,8.2,4.7.5.3,1,.3,1.5,0,2.7-1.6,5.4-3.1,8.2-4.7,0,0,.1,0,.2-.1Z"/>
      <path class="cls-1" d="M22.4,32.5c-.6,0-1.2-.2-1.8-.5-3.4-1.9-6.7-3.9-10.1-5.8-.6-.3-.8-1-.5-1.5.3-.5,1-.7,1.6-.4,3.3,1.9,6.7,3.8,10,5.7.5.3,1,.3,1.5,0,3.3-1.9,6.6-3.8,9.9-5.7.3-.2.6-.3,1-.2.5.1.8.4.8.9,0,.5-.1.8-.5,1.1-.8.5-1.7,1-2.6,1.5-2.5,1.4-5,2.9-7.5,4.3-.6.3-1.2.6-2,.6Z"/>
      <path class="cls-1" d="M22.4,37.5c-.6,0-1.2-.2-1.8-.5-3.4-1.9-6.7-3.9-10.1-5.8-.6-.3-.8-1-.5-1.5.3-.5,1-.7,1.6-.4,3.3,1.9,6.7,3.8,10,5.7.5.3,1,.3,1.5,0,3.3-1.9,6.6-3.8,9.9-5.7.3-.2.6-.3,1-.2.5.1.8.4.8.9,0,.5-.1.8-.5,1.1-.8.5-1.7,1-2.6,1.5-2.5,1.4-5,2.9-7.5,4.3-.6.3-1.2.6-2,.6Z"/>
    </g>
  </g>
</svg>