<?xml version="1.0" encoding="UTF-8"?>
<svg xmlns="http://www.w3.org/2000/svg" version="1.1" viewBox="0 0 45 50">
  <defs>
    <style>
      .cls-1 {
        fill: #fff;
      }

      .cls-2 {
        fill: none;
      }

      .cls-3 {
        fill: #00aeef;
      }
    </style>
  </defs>
  <!-- Generator: Adobe Illustrator 28.6.0, SVG Export Plug-In . SVG Version: 1.2.0 Build 709)  -->
  <g>
    <g id="Layer_1">
      <rect class="cls-2" width="45" height="50"/>
      <rect class="cls-2" x="10" y="12.5" width="25" height="25"/>
      <path class="cls-1" d="M17.75,12.5c.18.05.36.09.53.15,1.27.41,2.15,1.61,2.15,2.95,0,6.26,0,12.52,0,18.78,0,1.71-1.39,3.1-3.1,3.1-1.37,0-2.73,0-4.1,0-1.84,0-3.2-1.34-3.21-3.19,0-2.2,0-4.41,0-6.61,0-1.59-.01-3.19-.01-4.78,0-1.28,0-2.57.01-3.85,0-1.23-.02-2.46.03-3.68.05-1.37,1.15-2.56,2.5-2.81.06-.01.12-.04.18-.05,1.68,0,3.35,0,5.03,0ZM12.11,32.28c0,.74-.02,1.45,0,2.15.02.58.47.95,1.06.96,1.34,0,2.68,0,4.03,0,.72,0,1.14-.41,1.14-1.13,0-6.18,0-12.36,0-18.54,0-.72-.41-1.13-1.14-1.13-1.32,0-2.64,0-3.95,0-.72,0-1.14.41-1.14,1.13,0,.59,0,1.19,0,1.78,0,.06.01.12.02.2.64,0,1.27,0,1.89,0,.16,0,.33,0,.48.05.48.15.77.6.71,1.11-.05.49-.43.88-.93.9-.62.03-1.25.01-1.88.02-.09,0-.19,0-.29,0v2.08c.1,0,.19,0,.28,0,.94,0,1.87,0,2.81,0,.18,0,.37.05.53.13.42.22.62.7.5,1.16-.12.47-.53.79-1.04.79-.94,0-1.87,0-2.81,0-.09,0-.17,0-.26,0v2.06c.11,0,.2,0,.28,0,.59,0,1.19,0,1.78,0,.6.01,1.05.49,1.04,1.07-.01.58-.46,1.01-1.06,1.02-.53,0-1.06,0-1.59,0-.15,0-.3,0-.46,0v2.08c.11,0,.2,0,.29,0,.89,0,1.77,0,2.66,0,.15,0,.31,0,.46.05.47.13.79.62.74,1.08-.06.51-.43.91-.93.94-.49.03-.99.02-1.49.02-.57,0-1.14,0-1.74,0Z"/>
      <path class="cls-3" d="M31.12,12.5c.25.2.52.38.74.6.93.91,1.84,1.84,2.77,2.76.32.32.45.69.31,1.13-.23.73-1.14.96-1.7.43-.39-.37-.76-.76-1.14-1.14-.06-.06-.12-.11-.2-.19v17.78c.07-.06.13-.1.17-.15.37-.37.75-.75,1.12-1.12.44-.44,1.06-.45,1.49-.04.42.41.43,1.06,0,1.5-1.03,1.04-2.06,2.08-3.1,3.11-.43.43-1.08.42-1.51-.02-1.02-1.02-2.04-2.05-3.07-3.08-.31-.31-.41-.68-.28-1.09.13-.41.43-.65.85-.71.35-.06.65.07.91.32.42.42.84.84,1.29,1.3v-17.79c-.06.05-.11.08-.15.12-.38.38-.76.76-1.14,1.14-.45.44-1.08.45-1.5.03-.42-.42-.41-1.06.03-1.5,1.02-1.03,2.05-2.07,3.08-3.09.13-.13.3-.2.45-.3.2,0,.39,0,.59,0Z"/>
    </g>
  </g>
</svg>