<?xml version="1.0" encoding="UTF-8"?>
<svg xmlns="http://www.w3.org/2000/svg" version="1.1" viewBox="0 0 45 50">
  <defs>
    <style>
      .cls-1 {
        fill: #00aeef;
      }

      .cls-2 {
        fill: #fff;
      }

      .cls-3 {
        fill: none;
      }
    </style>
  </defs>
  <!-- Generator: Adobe Illustrator 28.6.0, SVG Export Plug-In . SVG Version: 1.2.0 Build 709)  -->
  <g>
    <g id="Layer_1">
      <rect class="cls-3" y="0" width="45" height="50"/>
      <rect class="cls-3" x="10" y="12.5" width="25" height="25"/>
      <path class="cls-2" d="M30.3,35.3c-1,.6-1.9,1.3-2.9,1.9-.5.3-1,.4-1.5.1-4.6-2-9.3-3.9-13.9-5.8-.6-.3-.9-.7-.9-1.4,0-4.1,0-8.1,0-12.2,0-.5.2-.9.7-1.2,2-1.3,4-2.6,6-4,.4-.3.9-.3,1.3-.1,4.7,2,9.4,4,14.1,5.9.5.2.8.6.8,1.2,0,4.1,0,8.3,0,12.4,0,.5-.2.9-.6,1.1-1,.7-2,1.3-3,2ZM31.7,30.5c0-.1,0-.2,0-.2,0-3.2,0-6.4,0-9.7,0-.3-.1-.3-.3-.4-3.8-1.6-7.6-3.2-11.4-4.8-.1,0-.2,0-.4-.1,0,3.3,0,6.6,0,9.9,0,.3.2.3.3.4,2.1.9,4.1,1.7,6.2,2.6,1.8.8,3.7,1.5,5.5,2.3ZM30.4,32.5c-.1,0-.1,0-.2-.1-3.8-1.6-7.6-3.2-11.4-4.8-.1,0-.4,0-.5,0-1.2.8-2.3,1.5-3.5,2.3,0,0-.2.1-.3.2,0,0,.1,0,.2,0,3.8,1.6,7.5,3.2,11.3,4.8.1,0,.4,0,.5,0,.5-.3.9-.6,1.4-.9.8-.5,1.6-1,2.4-1.6ZM13.3,28.2c1.3-.9,2.6-1.7,3.9-2.6.1,0,.2-.3.2-.5,0-3,0-5.9,0-8.9,0-.2,0-.3,0-.6-1.3.8-2.5,1.7-3.7,2.4-.2.2-.3.3-.3.6,0,3,0,6,0,9,0,.1,0,.2,0,.5Z"/>
      <polygon class="cls-1" points="19.6 15.3 31.7 20.4 31.7 30.5 19.6 25.5 19.6 15.3"/>
    </g>
  </g>
</svg>