<?xml version="1.0" encoding="UTF-8"?>
<svg id="Layer_1" xmlns="http://www.w3.org/2000/svg" version="1.1" viewBox="0 0 45 50">
  <!-- Generator: Adobe Illustrator 29.1.0, SVG Export Plug-In . SVG Version: 2.1.0 Build 142)  -->
  <defs>
    <style>
      .st0 {
        fill: #00aeef;
      }

      .st1 {
        fill: #fff;
      }

      .st2 {
        fill: none;
      }
    </style>
  </defs>
  <rect class="st2" width="45" height="50"/>
  <path class="st2" d="M9.9,37.8h-.2V12.5c.1-.2.2-.3.4-.3h25.2v25.2c0,.2-.2.3-.4.3H9.9Z"/>
  <g>
    <path class="st1" d="M23.6,37.7c-.7,0-1.6,0-2.3,0-2.6-.1-7-.7-9-2.5s-1.3-3.1.5-4.3,2.5-1.2,3.8-1.5c0,0,.3.4.4.5,1.2,1.7,2.2,3.8,3.5,5.5s3.1,1.3,4.1-.2,2.4-3.8,3.6-5.7h.1c1.3.2,2.7.6,3.8,1.4,1.7,1.2,2.1,2.9.4,4.3s-6.4,2.4-8.9,2.5Z"/>
    <path class="st0" d="M22,12.3c6.3-.4,10.7,6.4,7.7,12l-6.6,10.4c-.2.4-.8.5-1.1.2l-6.6-10.3c-3-5.3.6-11.9,6.7-12.2ZM22.1,16.8c-2.9.3-4.4,3.8-2.5,6.1s4.2,1.8,5.7,0c2.1-2.5,0-6.4-3.2-6.1Z"/>
  </g>
</svg>